<svg version="1.1" xmlns="http://www.w3.org/2000/svg" viewBox="0 0 429.33331298828125 281.99998474121094" width="429.33331298828125" height="281.99998474121094">
  <!-- svg-source:excalidraw -->

  <defs>
    <style class="style-fonts">
      @font-face {
        font-family: "Virgil";
        src: url("https://excalidraw.com/Virgil.woff2");
      }
      @font-face {
        font-family: "Cascadia";
        src: url("https://excalidraw.com/Cascadia.woff2");
      }
      @font-face {
        font-family: "Assistant";
        src: url("https://excalidraw.com/Assistant-Regular.woff2");
      }
    </style>

  </defs>
  <rect x="0" y="0" width="429.33331298828125" height="281.99998474121094" fill="#ffffff"></rect><g stroke-linecap="round" transform="translate(10 10) rotate(0 204.66665649414062 130.99999237060547)"><path d="M32 0 C143.8 2.54, 261.29 0.4, 377.33 0 C398.79 2.4, 412.88 8.57, 409.33 32 C415.3 77.42, 412.59 120.92, 409.33 230 C411.76 248.43, 401.73 263.26, 377.33 262 C284.42 257.56, 188.52 258.62, 32 262 C12.46 263.1, 1.88 254.92, 0 230 C-0.18 169.66, 2.58 104.1, 0 32 C-0.99 12.51, 10.65 2.65, 32 0" stroke="none" stroke-width="0" fill="#ffc9c9"></path><path d="M32 0 C120.75 0.3, 208.55 1.08, 377.33 0 M32 0 C115.2 0.65, 197.73 0.29, 377.33 0 M377.33 0 C396.91 1.84, 408.41 9.16, 409.33 32 M377.33 0 C400.18 0.64, 411.12 12.46, 409.33 32 M409.33 32 C406.7 73.34, 409.57 115.69, 409.33 230 M409.33 32 C409.05 89.88, 410.65 145.66, 409.33 230 M409.33 230 C409.8 252.22, 400.53 261.36, 377.33 262 M409.33 230 C410.22 251.64, 400.47 264.03, 377.33 262 M377.33 262 C261.25 261.87, 147.68 262.4, 32 262 M377.33 262 C297.69 261.7, 217.78 261.77, 32 262 M32 262 C10.34 260.57, -1.25 251.38, 0 230 M32 262 C8.59 263.17, 1.81 250.05, 0 230 M0 230 C0 186.03, 2.42 138.12, 0 32 M0 230 C1.19 158.81, -0.44 87.84, 0 32 M0 32 C1.25 10, 9.87 1.83, 32 0 M0 32 C0.33 12.75, 9.07 -1.67, 32 0" stroke="#1e1e1e" stroke-width="2" fill="none"></path></g><g stroke-linecap="round" transform="translate(53.33331298828125 47.33332824707031) rotate(0 166 100.66667175292969)"><path d="M32 0 C109.29 0.8, 180.27 -2.15, 300 0 C317.81 -3.17, 335.31 13.61, 332 32 C337.36 62.8, 335.86 99.51, 332 169.33 C332.71 188.13, 324.86 204.14, 300 201.33 C229.34 199.08, 154.47 200.9, 32 201.33 C7.69 204.02, 2.21 192.98, 0 169.33 C0.7 124.83, -0.3 74.74, 0 32 C-2.97 11.65, 8.66 1.18, 32 0" stroke="none" stroke-width="0" fill="#a5d8ff"></path><path d="M32 0 C111.06 1.42, 187.12 0.37, 300 0 M32 0 C125.06 0.18, 217.88 0.52, 300 0 M300 0 C321.66 -1.81, 331.25 12.54, 332 32 M300 0 C320.62 0.61, 331.49 9.66, 332 32 M332 32 C330.77 70.85, 332.21 106.14, 332 169.33 M332 32 C333.36 65.1, 331.77 97.4, 332 169.33 M332 169.33 C333.84 188.77, 321.62 202.08, 300 201.33 M332 169.33 C331.13 190.58, 322.81 202.95, 300 201.33 M300 201.33 C197.45 200.6, 96.04 200.21, 32 201.33 M300 201.33 C234.9 201.49, 168.9 202.77, 32 201.33 M32 201.33 C12.25 200.41, 1.67 191.62, 0 169.33 M32 201.33 C10.63 199.82, 1.66 188.64, 0 169.33 M0 169.33 C-0.19 131.06, 0.31 93.18, 0 32 M0 169.33 C-0.55 119.91, -1.12 71.39, 0 32 M0 32 C0.84 8.91, 10.29 0.69, 32 0 M0 32 C1.87 12.08, 11.63 1.58, 32 0" stroke="#1e1e1e" stroke-width="2" fill="none"></path></g><g stroke-linecap="round" transform="translate(100.6666259765625 90.66670227050781) rotate(0 121 61.666656494140625)"><path d="M30.83 0 C76.08 -2.03, 128.74 2.79, 211.17 0 C235.3 -1.1, 244.21 9.92, 242 30.83 C239.39 51.87, 240.68 71.58, 242 92.5 C245.12 111.23, 229.22 123.07, 211.17 123.33 C160.76 123.71, 105.55 118.54, 30.83 123.33 C11.94 125.72, -1.26 112.56, 0 92.5 C1.9 76.62, -1.11 54.65, 0 30.83 C-2.15 12.2, 7.56 -0.69, 30.83 0" stroke="none" stroke-width="0" fill="#ffec99"></path><path d="M30.83 0 C76.73 -1.96, 122.17 -1.38, 211.17 0 M30.83 0 C86.01 0.42, 141.58 -0.01, 211.17 0 M211.17 0 C229.97 -1.75, 240.87 11.97, 242 30.83 M211.17 0 C232.54 1.41, 240.11 8.06, 242 30.83 M242 30.83 C241.11 47.92, 242.39 64.21, 242 92.5 M242 30.83 C242.59 53.35, 241.39 76.91, 242 92.5 M242 92.5 C243.67 111.29, 231.88 122.02, 211.17 123.33 M242 92.5 C242.47 112.51, 232.59 121.95, 211.17 123.33 M211.17 123.33 C153.74 126.29, 99.07 125.63, 30.83 123.33 M211.17 123.33 C143.46 124.27, 73.55 124.7, 30.83 123.33 M30.83 123.33 C12.05 124.31, 1.98 113.99, 0 92.5 M30.83 123.33 C9.02 122.61, 1.48 111.33, 0 92.5 M0 92.5 C-0.55 80.88, -2.38 67.53, 0 30.83 M0 92.5 C0.17 69.47, 0.46 46.72, 0 30.83 M0 30.83 C-0.92 10.6, 10.1 -0.6, 30.83 0 M0 30.83 C-0.52 12.5, 10.26 1.94, 30.83 0" stroke="#1e1e1e" stroke-width="2" fill="none"></path></g><g transform="translate(30.66668701171875 18.000015258789062) rotate(0 58.59375 12)"><text x="0" y="0" font-family="Cascadia, Segoe UI Emoji" font-size="20px" fill="#1e1e1e" text-anchor="start" style="white-space: pre;" direction="ltr" dominant-baseline="text-before-edge">Border-box</text></g><g transform="translate(76 58.66667175292969) rotate(0 64.453125 12)"><text x="0" y="0" font-family="Cascadia, Segoe UI Emoji" font-size="20px" fill="#1e1e1e" text-anchor="start" style="white-space: pre;" direction="ltr" dominant-baseline="text-before-edge">Padding-box</text></g><g transform="translate(123.99993896484375 103.33332824707031) rotate(0 64.453125 12)"><text x="0" y="0" font-family="Cascadia, Segoe UI Emoji" font-size="20px" fill="#1e1e1e" text-anchor="start" style="white-space: pre;" direction="ltr" dominant-baseline="text-before-edge">Content-box</text></g></svg>
