<svg xmlns:xlink="http://www.w3.org/1999/xlink" xmlns="http://www.w3.org/2000/svg" version="1.1" viewBox="0 0 2099.42234 1601.00033" height="1601.00033px" width="2099.42234px">
    <title>冠军亚军</title>
    <g fill-rule="evenodd" fill="none" stroke-width="1" stroke="none" id="页面-1">
        <g transform="translate(0.498877, 0.500016)" id="冠军亚军">
            <path stroke="#80818C" id="路径" d="M492.40245,748.550995 C456.583422,782.73445 476.210287,834.254969 479.644988,877.434071 C480.081141,882.995016 478.336531,887.683656 474.411158,891.5 C338.168007,1021.0373 366.463403,1264.24686 552.264386,1329.34262 C854.681656,1435.32769 1049.47828,1035.921 783.0436,862.713923 C777.918808,859.442778 775.029297,854.754139 774.375069,848.648003 L764.725194,759.34577 C764.070965,753.130596 761.508569,747.842247 757.038005,743.480721 L735.12134,721.564056 C731.414043,717.747721 730.269143,713.277158 731.686639,708.152365 L926.483268,34.4602446 C930.387444,21.0489522 922.707897,7.00635244 909.309761,3.05726157 C899.496329,0.11323191 888.101844,-0.704554107 875.126306,0.60390352 C647.454679,22.738645 423.054196,44.2191578 201.924857,65.0454417 C191.537831,66.0091708 182.307375,72.0679562 177.291503,81.2145465 C172.275631,90.3611368 172.129156,101.40146 176.900605,110.677901 L495.182922,733.01306 C498.126952,738.792081 497.200128,743.971393 492.40245,748.550995"></path>
            <path stroke="#80879F" id="路径" d="M1459.02552,939.422251 C1473.09144,935.714954 1486.88477,936.587259 1500.40549,942.039166 C1508.91327,945.482097 1518.4704,945.210874 1526.74422,941.291696 C1535.01804,937.372518 1541.24735,930.165955 1543.91171,921.430959 C1549.0365,904.857162 1546.20151,890.900281 1535.40674,879.560314 C1531.15425,875.089751 1531.53588,871.05534 1536.55164,867.457081 L1582.83832,833.927855 C1587.19985,830.874787 1592.05205,829.402772 1597.39492,829.51181 C1743.77861,832.619397 1976.84763,777.009948 2031.31218,619.995033 C2079.07088,482.279867 1982.24502,372.860098 1834.87998,394.776764 C1829.20999,395.649069 1823.8126,394.776764 1818.68781,392.159848 C1658.40175,310.926437 1488.90197,258.915247 1310.18847,236.126276 C1304.73656,235.472048 1300.04792,233.236766 1296.12255,229.420431 C1189.97392,127.197179 1049.96896,166.123793 1009.40677,300.404257 C961.320952,459.545416 1121.60701,638.804111 1246.2376,718.456469 C1251.58047,721.945689 1255.45132,726.634329 1257.85016,732.522389 L1279.43971,786.169151 C1282.16567,792.929516 1280.09394,797.400079 1273.22454,799.580842 C1247.49154,807.86774 1238.11426,824.986728 1245.0927,850.937804 C1246.61923,856.498749 1249.89038,860.53316 1254.90613,863.041037 C1269.95339,870.401111 1307.89867,878.578971 1295.95899,904.093895 C1293.34207,909.65484 1289.03507,911.99916 1283.03797,911.126855 C1257.30497,907.31052 1243.9478,919.141158 1242.96646,946.618768 C1242.74838,952.179713 1244.16588,957.249986 1247.21894,961.829588 L1257.6866,977.694637 C1262.8114,985.327306 1261.23034,991.106327 1252.94345,995.0317 L1149.73885,1043.9353 C1144.61406,1046.33414 1140.47061,1049.9324 1137.3085,1054.73008 C1098.59996,1114.15586 1072.43081,1178.76096 1058.80105,1248.54537 C1057.38355,1255.95996 1052.96751,1258.84947 1045.55291,1257.2139 L1002.53737,1247.23691 C989.733102,1244.24921 976.80043,1251.68013 972.933514,1264.24686 L929.917969,1403.92471 C927.164107,1412.81718 928.066137,1422.44036 932.424584,1430.66617 C936.783031,1438.89197 944.238793,1445.04265 953.143092,1447.75804 L1446.1045,1598.88489 C1459.20078,1602.93248 1473.10218,1595.61596 1477.18037,1582.52917 L1522.32216,1436.30903 C1524.39388,1429.65771 1523.41254,1423.49705 1519.37813,1417.82707 C1506.51163,1399.6177 1488.57486,1389.20456 1465.56781,1386.58764 C1458.37129,1385.71534 1456.19053,1381.89901 1459.02552,1375.13864 C1486.93928,1308.84345 1501.76847,1239.7678 1503.51308,1167.91166 C1503.73116,1162.35072 1502.4227,1157.17141 1499.58771,1152.37373 L1443.16047,1055.22075 C1440.35048,1050.42204 1440.1712,1044.52433 1442.68454,1039.5638 C1445.19787,1034.60327 1450.05945,1031.25959 1455.59082,1030.68717 C1508.25624,1024.79911 1479.47017,974.423492 1455.75438,953.48817 C1448.12171,946.727806 1449.21209,942.039166 1459.02552,939.422251"></path>
            <path stroke="#C8AFFE" id="路径" d="M37.222753,432.067806 C26.5370157,432.940111 16.5600263,435.829622 7.2917848,440.736338 C-2.84876181,446.188245 -2.41260926,450.54977 8.60024243,453.820914 C33.2428611,461.235507 42.4565835,477.809304 36.2414098,503.542304 C30.4623886,526.876465 35.1510284,529.984052 50.3073293,512.865065 C67.753431,493.020124 86.1808759,491.49359 105.589664,508.285463 C141.572249,539.47037 146.315408,534.945287 119.819141,494.710215 C104.117649,470.939901 107.60687,452.021785 130.286802,437.955865 C153.730001,423.235717 151.494719,418.219963 123.580956,422.908603 C98.284109,427.16109 80.9470454,417.892848 71.5697657,395.103878 C65.1365157,379.511425 59.7936471,379.838539 55.5411598,396.085221 L48.8353145,422.254374 C47.3087806,428.360509 43.4379268,431.631653 37.222753,432.067806"></path>
            <path stroke="#C8AFFE" id="路径" d="M323.938531,709.62438 L332.77062,671.188437 C334.951382,661.265967 331.407643,658.267418 322.139401,662.192791 L281.086543,679.039183 C275.852713,681.110908 270.891478,680.674755 266.202838,677.730726 L233.982069,657.61319 C223.841522,651.288978 220.352302,653.905893 223.514408,665.463935 C233.654954,702.318825 222.860179,728.92413 191.130081,745.279851 C177.064162,752.585406 177.718391,757.928274 193.092768,761.308456 L234.963412,770.631217 C240.197242,771.830637 243.959058,774.829185 246.248859,779.626863 L263.095251,815.936562 C268.329081,827.16749 273.726469,827.222009 279.287414,816.10012 L296.133806,782.73445 C299.077836,776.846391 303.820995,773.520728 310.363283,772.757461 L350.107683,768.014302 C360.79342,766.814882 362.374473,762.344319 354.850842,754.602611 L329.172361,728.433459 C324.047569,723.09059 322.302959,716.820897 323.938531,709.62438"></path>
            <path stroke="#C8AFFE" id="路径" d="M2004.81591,986.199611 L1974.88494,983.90981 C1956.67557,982.601353 1954.93096,987.344512 1969.65111,998.139287 C1992.98527,1015.14924 1997.0742,1035.48485 1981.9179,1059.14612 C1966.87064,1082.91644 1970.41438,1086.40566 1992.54912,1069.61378 C2015.44713,1052.16768 2034.85592,1054.18489 2050.77548,1075.6654 C2053.23708,1078.95487 2057.66975,1080.06449 2061.39081,1078.32272 C2065.11187,1076.58094 2067.09912,1072.46625 2066.14986,1068.46888 C2059.49853,1041.6455 2068.49418,1023.81777 2093.1368,1014.98568 C2096.71854,1013.68893 2098.8926,1010.05017 2098.33723,1006.28161 C2097.78186,1002.51305 2094.65055,999.656137 2090.847,999.447745 C2064.13266,998.030249 2049.08539,984.50952 2045.70521,958.885558 C2044.61483,950.053469 2040.63494,948.472416 2033.76553,954.142399 C2026.78709,959.92142 2022.04394,967.172456 2019.53606,975.895507 C2017.46433,983.419139 2012.55762,986.85384 2004.81591,986.199611"></path>
            <path stroke="#C8AFFE" id="路径" d="M33.1338229,1091.53045 C62.4105623,1100.19898 77.7849395,1108.5404 73.368895,1143.05097 C72.605628,1149.26614 75.3315814,1152.8644 81.5467551,1153.84574 C107.061679,1157.60756 102.972749,1109.03107 148.605209,1131.11129 C153.075772,1133.29206 157.382778,1133.01946 161.526228,1130.29351 L165.4516,1127.84015 C172.648117,1123.15151 173.138789,1117.80864 166.923615,1111.81154 C146.315408,1091.85756 146.533484,1072.33974 167.577844,1053.25806 C174.556285,1046.93385 173.68398,1042.02714 164.960929,1038.53792 C154.275192,1034.39447 143.425897,1034.7761 132.413045,1039.68282 C120.309812,1045.02569 111.368685,1041.75454 105.589664,1029.86938 C101.228139,1021.0373 95.0129649,1014.7676 86.9441429,1011.06031 C80.4018547,1008.00724 76.640039,1010.02444 75.6586958,1017.11192 L71.4062085,1049.65981 C70.7519797,1054.23941 68.4076598,1057.61959 64.3732488,1059.80035 L31.6618081,1077.79164 C21.1941471,1083.57067 21.6848187,1088.15027 33.1338229,1091.53045"></path>
            <path stroke="#C8AFFE" id="路径" d="M1781.06966,1213.05345 L1822.61319,1202.91291 C1839.07794,1198.98753 1839.56862,1193.59014 1824.0852,1186.72074 C1791.59184,1172.21867 1782.54167,1147.84865 1796.9347,1113.61067 C1798.86342,1108.75024 1797.20061,1103.20145 1792.91674,1100.20274 C1788.63288,1097.20403 1782.8501,1097.54091 1778.94341,1101.01677 C1752.22907,1125.87746 1724.91502,1126.69525 1697.00125,1103.47013 C1693.50681,1100.61144 1688.48182,1100.61162 1684.98758,1103.47055 C1681.49333,1106.32947 1680.49811,1111.25492 1682.60822,1115.24624 C1700.05432,1147.95769 1693.83915,1173.30905 1663.9627,1191.30034 C1658.40175,1194.57149 1657.36589,1198.98753 1660.85511,1204.54848 C1670.66854,1220.24997 1692.09454,1213.05345 1707.95959,1216.81527 C1713.52053,1218.01469 1717.66398,1221.12227 1720.38993,1226.13803 L1739.19901,1260.81216 C1744.21477,1270.0804 1748.79437,1269.86232 1752.93782,1260.15793 L1768.14864,1224.01178 C1770.54748,1218.23276 1774.85448,1214.57999 1781.06966,1213.05345"></path>
            <path stroke="#C8AFFE" id="路径" d="M1893.59701,1468.85692 L1892.94278,1445.46824 C1892.83374,1438.81691 1889.45356,1435.65481 1882.80224,1435.98192 C1856.14241,1437.12682 1863.17537,1483.41351 1816.0709,1458.55281 C1813.23591,1457.02628 1810.34639,1456.97176 1807.40237,1458.38926 L1802.98632,1460.5155 C1799.38806,1462.26011 1798.40672,1464.98606 1800.04229,1468.69336 L1816.88868,1506.80219 C1819.72367,1513.45352 1818.25166,1518.95994 1812.47264,1523.32147 C1804.94901,1528.99145 1800.47844,1536.51508 1799.06095,1545.89236 C1797.53441,1555.59676 1801.40527,1558.81338 1810.67351,1555.54224 C1840.659,1545.18361 1863.39345,1553.36147 1878.87686,1580.07582 C1880.83176,1583.40078 1884.85768,1584.82203 1888.48368,1583.46726 C1892.10967,1582.11249 1894.32106,1578.36082 1893.76057,1574.51487 C1887.87251,1541.80343 1900.52093,1523.10339 1931.70584,1518.41475 C1936.01671,1517.7681 1939.40869,1514.39765 1940.08278,1510.09098 C1940.75686,1505.78432 1938.55698,1501.53862 1934.64987,1499.60567 L1903.08333,1483.74062 C1896.97719,1480.68756 1893.81509,1475.72632 1893.59701,1468.85692"></path>
            <path stroke="#7E0666" id="路径" d="M805.123823,26.9366133 C790.07656,23.8835455 776.882946,23.9380645 765.54298,27.1001705 C760.309149,28.4086281 756.928967,31.6797722 755.402433,36.9136027 C681.91073,283.012675 634.097507,446.406321 611.962766,527.094541 C604.657211,553.372732 612.180842,576.924969 634.53366,597.751253"></path>
            <line stroke="#696C7B" id="路径" y2="680.184084" x2="674.768732" y1="597.751253" x1="634.53366"></line>
            <path stroke="#210D60" id="路径" d="M674.768732,680.184084 C676.731418,700.465177 682.401401,712.950043 691.778681,717.638683 C704.645181,724.071933 713.095636,720.419156 717.130047,706.680351 C775.792564,504.196533 833.746333,301.98531 890.991355,100.046683 C891.209431,99.3924544 895.35288,88.0524883 903.421702,66.0267849 C914.870706,34.6238018 903.639778,19.3584628 869.728918,20.2307679"></path>
            <path stroke="#80818C" id="路径" d="M869.728918,20.2307679 C846.176681,15.7602044 824.641649,17.9954861 805.123823,26.9366133"></path>
            <line stroke="#A18BD3" id="路径" y2="470.99442" x2="735.448454" y1="20.2307679" x1="869.728918"></line>
            <path stroke="#E8EAEE" id="路径" d="M735.448454,470.99442 C697.66674,486.368798 716.148704,532.491929 659.06724,540.506232"></path>
            <line stroke="#FE84D9" id="路径" y2="26.9366133" x2="805.123823" y1="540.506232" x1="659.06724"></line>
            <line stroke="#8A76C1" id="路径" y2="470.99442" x2="735.448454" y1="680.184084" x1="674.768732"></line>
            <line stroke="#E76FC7" id="路径" y2="597.751253" x2="634.53366" y1="540.506232" x1="659.06724"></line>
            <path stroke="#80818C" id="路径" d="M383.146238,110.841459 C390.342755,135.702154 400.537821,154.892865 413.731435,168.413594"></path>
            <path stroke="#5F0757" id="路径" d="M413.731435,168.413594 C415.148931,182.806628 421.146028,194.96438 431.722728,204.886851 C435.211948,208.048956 439.300878,209.411933 443.989518,208.975781 L684.745721,184.605757 C690.851857,183.951529 694.995306,180.843942 697.176069,175.282997 C701.75567,163.724954 703.609319,151.894317 702.737014,139.791084"></path>
            <path stroke="#696C7B" id="路径" d="M702.737014,139.791084 C713.531789,120.491334 719.201772,99.8286069 719.746963,77.8029035"></path>
            <path stroke="#210D60" id="路径" d="M719.746963,77.8029035 L730.705295,41.983876 C732.667982,35.4415878 730.269143,32.4975582 723.508778,33.151787 L375.45905,63.0827552 C368.480609,63.6279459 365.427541,67.3897616 366.299846,74.3682022 C368.153495,91.3781514 373.768959,103.535904 383.146238,110.841459"></path>
            <line stroke="#8A76C1" id="路径" y2="82.0553908" x2="668.880672" y1="77.8029035" x1="719.746963"></line>
            <line stroke="#A18BD3" id="路径" y2="110.841459" x2="383.146238" y1="82.0553908" x1="668.880672"></line>
            <line stroke="#C770B9" id="路径" y2="143.225785" x2="584.81227" y1="139.791084" x1="702.737014"></line>
            <path stroke="#E8EAEE" id="路径" d="M668.880672,82.0553908 C652.0888,114.766831 624.065999,135.156963 584.81227,143.225785"></path>
            <line stroke="#DE85CA" id="路径" y2="168.413594" x2="413.731435" y1="143.225785" x1="584.81227"></line>
            <path stroke="#80818C" id="路径" d="M294.498234,75.0224311 C271.491187,70.98802 249.68356,73.7139734 229.075353,83.2002912"></path>
            <path stroke="#210D60" id="路径" d="M229.075353,83.2002912 C214.137128,78.7297277 202.197452,80.8014522 193.256325,89.415465 C188.567685,93.9950667 187.69538,99.1743781 190.63941,104.953399 L534.273094,777.664177 C536.780971,782.679931 540.815382,785.787518 546.376327,786.986937 C561.750704,790.476158 574.562685,787.150495 584.81227,777.009948"></path>
            <path stroke="#80818C" id="路径" d="M584.81227,777.009948 C606.183745,789.440295 627.991372,789.440295 650.235151,777.009948"></path>
            <path stroke="#7E0666" id="路径" d="M650.235151,777.009948 L680.656791,777.173505 C685.310505,777.163416 689.626355,774.741605 692.059778,770.774792 C694.493201,766.807979 694.696329,761.863237 692.596467,757.710198 L346.509425,79.9291472 C343.892509,74.8043548 339.74906,71.751287 334.079077,70.7699438 C320.885463,68.4801429 307.691848,69.8976387 294.498234,75.0224311"></path>
            <line stroke="#FE84D9" id="路径" y2="75.0224311" x2="294.498234" y1="777.009948" x1="650.235151"></line>
            <line stroke="#A18BD3" id="路径" y2="83.2002912" x2="229.075353" y1="777.009948" x1="584.81227"></line>
            <path stroke="#80818C" id="路径" d="M688.834651,211.265581 C689.532923,208.702228 688.942457,205.959421 687.251257,203.910468 C685.560058,201.861515 682.978921,200.761803 680.329677,200.961478 L450.85892,222.223914 C448.180335,222.481526 445.799912,224.040385 444.493073,226.392694 C443.186235,228.745003 443.120257,231.589666 444.316632,234.000033 L585.95717,514.991308 C587.46569,518.029535 590.69324,519.82108 594.069584,519.494337 C597.445927,519.167594 600.270051,516.790404 601.16799,513.519293 L688.834651,211.265581"></path>
            <path stroke="#80690D" id="路径" d="M747.100269,848.705248 C755.94833,847.411914 759.442606,821.150663 754.905219,790.047093 C752.72603,775.109595 748.948006,761.03023 744.402275,750.906317 C739.856544,740.782403 734.915471,735.443244 730.666042,736.063402 C721.817981,737.356736 718.323705,763.617987 722.861092,794.721558 C725.040281,809.659055 728.818305,823.73842 733.364036,833.862334 C737.909767,843.986247 742.850841,849.325406 747.100269,848.705248"></path>
            <path stroke="#80690D" id="路径" d="M520.207175,862.550365 L516.118245,765.397387 C516.075633,764.182536 515.551772,763.034469 514.662083,762.206138 C513.772394,761.377807 512.589881,760.937181 511.375086,760.981342 L504.015011,761.308456 C492.964932,761.905337 484.780447,779.955049 485.696605,801.707086 L486.841505,828.857581 C487.273456,839.354139 489.808811,849.337457 493.889036,856.608234 C497.969261,863.879011 503.259603,867.840732 508.594613,867.620639 L515.954687,867.293524 C518.419762,867.118811 520.301617,865.019818 520.207175,862.550365"></path>
            <path stroke="#80818C" id="路径" d="M697.012511,790.258081 C662.992613,795.982584 566.166749,814.30099 537.707795,799.580842 C529.966088,795.546431 526.749463,797.836232 528.05792,806.450245 L533.455308,840.6337 C534.436651,847.06695 537.980391,849.084156 544.086526,846.685317 C595.225412,825.859033 647.94535,820.788759 702.246342,831.474497 C710.642278,833.110069 714.022461,829.729887 712.386889,821.33395 L707.64373,797.618156 C706.44431,791.730096 702.900571,789.276738 697.012511,790.258081"></path>
            <path stroke="#7F580D" id="路径" d="M413.731435,1157.93467 C462.689558,1279.40316 544.304603,1336.75722 658.576569,1329.99685 C869.074689,1317.56651 973.097071,1066.99687 822.624444,916.6878"></path>
            <path stroke="#80690D" id="路径" d="M822.624444,916.6878 C636.005675,729.414802 356.813528,903.276109 413.731435,1157.93467"></path>
            <path stroke="#FFBE01" id="路径" d="M822.624444,916.6878 C813.792355,925.956041 802.724984,929.826895 789.422331,928.300361 C769.904505,925.901522 766.033651,932.607367 777.80977,948.417897 C785.224363,958.231329 794.710681,960.684687 806.268723,955.777971 C809.97602,954.251437 813.192645,954.905666 815.918598,957.740658 C817.118018,958.940077 818.317437,960.084978 819.516857,961.175359 C823.769344,965.427846 824.041939,969.952929 820.334643,974.750607 C812.592935,984.564039 811.338997,994.704586 816.572827,1005.17225 C818.862628,1009.75185 819.953009,1014.60405 819.843971,1019.72884 C817.227056,1101.83455 773.393725,1194.73505 684.582164,1204.71203 C637.695766,1210.0549 596.642908,1189.93737 561.42359,1144.35943"></path>
            <path stroke="#FE6C59" id="路径" d="M561.42359,1144.35943 C578.651615,1142.72385 590.863886,1135.85445 598.060403,1123.75122 C601.177648,1118.327 600.891236,1111.5923 597.324721,1106.45232 C593.758205,1101.31234 587.54976,1098.6868 581.377569,1099.70831 L543.432297,1106.41416 C536.999047,1107.61358 533.182713,1111.42991 531.983293,1117.86316 C530.565797,1125.49583 532.037812,1132.03812 536.399338,1137.49002"></path>
            <path stroke="#FFBE01" id="路径" d="M536.399338,1137.49002 C512.629024,1145.12269 488.695153,1145.61337 464.597725,1138.96204 C459.363895,1137.54454 454.239103,1138.03521 449.223348,1140.43405 L413.731435,1157.93467"></path>
            <line stroke="#FD5B5A" id="路径" y2="1144.35943" x2="561.42359" y1="1137.49002" x1="536.399338"></line>
            <path stroke="#806F20" id="路径" d="M1079.08214,402.300395 C1050.45963,293.20774 1145.15925,179.371927 1253.59767,269.655503 C1258.72247,273.90799 1262.8114,273.035685 1265.86446,267.038588 L1276.16857,246.103266 C1279.00356,240.433283 1278.13126,235.417529 1273.55165,231.056003 C1210.09146,170.539838 1129.62131,168.577151 1067.96025,233.509361 C927.464611,381.037959 1105.08773,603.80287 1238.38685,692.941545 C1242.42127,695.558461 1244.00232,694.522598 1243.13001,689.833959 C1236.91484,656.468289 1234.29792,636.677867 1207.96521,611.326501 C1141.99714,548.302459 1099.03612,478.62709 1079.08214,402.300395"></path>
            <path stroke="#80879F" id="路径" d="M1229.55477,597.751253 C1221.04979,498.472031 1231.35389,404.91731 1255.23325,307.764331 C1256.5417,302.857615 1255.61488,298.441571 1252.45277,294.516198 C1195.69842,220.915456 1102.63438,253.299783 1093.96584,344.728259 C1084.80664,441.227009 1156.77181,536.580859 1220.88623,601.676626 C1222.37741,603.188333 1224.65393,603.613082 1226.58929,602.736691 C1228.52466,601.860299 1229.7084,599.870237 1229.55477,597.751253"></path>
            <path stroke="#7F5D20" id="路径" d="M1441.03423,845.867531 L1501.87751,863.041037 C1507.32942,864.567571 1512.45421,863.804304 1517.25189,860.751236 C1674.92103,759.34577 1778.07111,612.853035 1826.70212,421.273031"></path>
            <path stroke="#806F20" id="路径" d="M1826.70212,421.273031 C1668.2697,328.91773 1498.33377,272.817609 1316.89431,252.972668 C1298.24879,250.900944 1285.982,259.460437 1280.09394,278.651149 C1225.57487,457.800806 1230.97226,629.917503 1296.2861,795.00124 C1298.46687,800.562185 1302.44676,804.214963 1308.22578,805.959573 L1441.03423,845.867531"></path>
            <path stroke="#FFBE01" id="路径" d="M1826.70212,421.273031 C1796.49855,432.285882 1770.38392,429.559929 1748.35821,413.09517 C1742.90631,409.060759 1738.16315,409.824026 1734.12874,415.384971 C1720.71705,434.139531 1718.37273,453.875433 1727.09578,474.592679 C1729.05846,479.390357 1729.00395,484.188035 1726.93222,488.985713 C1688.49628,575.180359 1650.22389,622.939062 1570.57153,689.670401 C1518.01515,733.721808 1474.83605,785.787518 1441.03423,845.867531"></path>
            <path stroke="#806F20" id="路径" d="M1848.61878,455.947158 C1923.03731,446.133726 1980.60944,487.023026 1970.63245,560.787325 C1953.29539,687.871272 1778.6163,750.677238 1672.46767,764.416043 C1666.90673,765.070272 1662.05453,767.305554 1657.91108,771.121889 L1620.94715,803.996887 C1612.98737,810.975327 1614.29583,814.410028 1624.87253,814.303507 C1767.82152,811.847632 1983.55347,754.766168 2019.3725,589.246278 C2043.90608,475.901137 1969.97823,393.79542 1853.03482,407.043554 C1846.60157,407.806821 1843.05784,411.405079 1842.40361,417.838329 L1839.45958,447.115069 C1838.80535,453.875433 1841.85842,456.819463 1848.61878,455.947158"></path>
            <path stroke="#80879F" id="路径" d="M1827.35634,479.008723 C1791.86443,577.47016 1745.7413,653.197145 1684.89802,736.938433 C1681.62688,741.408997 1682.77178,743.317164 1688.33272,742.662935 C1784.01369,730.723259 1999.09141,645.182842 1948.06156,518.589567 C1929.90671,473.284221 1882.80224,460.363202 1838.64179,469.195291 C1833.08085,470.394711 1829.31903,473.665855 1827.35634,479.008723"></path>
            <path stroke="#806F20" id="路径" d="M1528.52916,912.005157 C1531.6006,902.08196 1526.04641,891.547671 1516.12334,888.475818 L1283.63332,816.507377 C1273.71012,813.435928 1263.17583,818.990119 1260.10398,828.913191 L1259.33035,831.413981 C1256.25891,841.337178 1261.8131,851.871467 1271.73617,854.94332 L1504.22619,926.91176 C1514.14939,929.983209 1524.68368,924.429019 1527.75553,914.505947 L1528.52916,912.005157"></path>
            <path stroke="#806F20" id="路径" d="M1446.76527,941.244278 C1449.06246,933.729297 1444.83299,925.77489 1437.31821,923.477059 L1329.70738,890.577528 C1322.1924,888.280345 1314.23799,892.509808 1311.94016,900.024592 L1311.65394,900.96341 C1309.35676,908.478392 1313.58622,916.432799 1321.101,918.730629 L1428.71183,951.630161 C1436.22681,953.927343 1444.18122,949.69788 1446.47905,942.183097 L1446.76527,941.244278"></path>
            <path stroke="#806F20" id="路径" d="M1465.85076,1001.23706 C1467.339,996.43012 1466.85666,991.228852 1464.50986,986.777556 C1462.16305,982.326261 1458.14403,978.989595 1453.337,977.501639 L1285.84461,925.654006 C1275.83515,922.555956 1265.20936,928.158459 1262.11083,938.167767 L1261.8197,939.10495 C1260.33145,943.91189 1260.8138,949.113159 1263.1606,953.564454 C1265.50741,958.015749 1269.52643,961.352416 1274.33346,962.840371 L1441.82585,1014.688 C1451.8353,1017.78605 1462.4611,1012.18355 1465.55963,1002.17424 L1465.85076,1001.23706"></path>
            <path stroke="#7F5D20" id="路径" d="M1142.54233,1069.9409 C1139.5983,1074.30242 1137.96273,1078.60943 1137.63562,1082.86192 C1137.19946,1090.05844 1140.41609,1094.69256 1147.28549,1096.76428 L1470.63808,1195.87995 C1478.26171,1198.17515 1486.52445,1195.35754 1491.1326,1188.89126 C1495.74075,1182.42498 1495.65471,1173.76885 1490.91918,1167.42099 C1461.15177,1126.85881 1438.63539,1082.64384 1423.37005,1034.7761 C1421.62544,1029.43323 1418.02718,1025.94401 1412.57528,1024.30844 L1353.53113,1007.29849"></path>
            <path stroke="#806F20" id="路径" d="M1353.53113,1007.29849 L1297.59456,988.816526 C1292.90592,987.289992 1288.43536,987.726145 1284.18287,990.124984 L1142.54233,1069.9409"></path>
            <path stroke="#FFBE01" id="路径" d="M1353.53113,1007.29849 C1356.80227,1087.76863 1206.65676,1071.90359 1142.54233,1069.9409"></path>
            <path stroke="#7F5D20" id="路径" d="M1080.55415,1268.6629 L1430.89368,1374.64797 C1436.01848,1376.1745 1439.83481,1374.53893 1442.34269,1369.74125 C1466.00396,1322.74582 1478.43431,1272.26116 1479.63373,1218.28728"></path>
            <path stroke="#806F20" id="路径" d="M1479.63373,1218.28728 L1137.47206,1111.9751 C1130.0383,1109.71441 1122.04007,1112.99574 1118.33587,1119.82585 C1092.92998,1165.62186 1080.33608,1215.23421 1080.55137,1268.6629"></path>
            <path stroke="#FFBE01" id="路径" d="M1479.63373,1218.28728 C1469.16607,1234.75204 1455.64534,1241.94856 1439.07154,1239.87683 C1432.74733,1239.11357 1426.80475,1240.36751 1421.24381,1243.63865 L1363.67167,1278.47633 C1359.31015,1281.09325 1354.56699,1282.12911 1349.4422,1281.58392 C1299.61177,1275.91394 1244.8201,1263.70167 1185.06721,1244.94711 C1147.23097,1233.06195 1112.39329,1240.96721 1080.55415,1268.6629"></path>
            <path stroke="#7F5D20" id="路径" d="M1504.49115,1439.22035 C1508.15581,1427.3063 1501.46889,1414.67716 1489.55511,1411.01164 L1012.75806,1264.32864 C1007.03627,1262.56836 1000.84956,1263.15326 995.559044,1265.95465 C990.268525,1268.75603 986.307604,1273.54441 984.547711,1279.26631 L945.786289,1405.26588 C942.121629,1417.17993 948.808549,1429.80907 960.722333,1433.47459 L1437.51939,1580.1576 C1443.24117,1581.91787 1449.42788,1581.33297 1454.7184,1578.53158 C1460.00892,1575.7302 1463.96984,1570.94182 1465.72973,1565.21992 L1504.49115,1439.22035"></path>
            <path stroke="#FEAD01" id="路径" d="M1358.43784,291.245054 L1321.47391,290.590825 C1318.22024,290.502903 1315.065,291.711701 1312.70293,293.951068 C1310.34086,296.190436 1308.96562,299.276761 1308.88001,302.530501 L1308.88001,304.656745 C1308.60862,317.160321 1311.40427,329.220772 1316.65068,338.179563 C1321.8971,347.138354 1329.16356,352.259975 1336.84829,352.415448 L1340.44655,352.415448 C1356.42321,352.751915 1369.82023,331.960904 1370.37752,305.965202 L1370.37752,303.838959 C1370.46544,300.58528 1369.25664,297.430048 1367.01727,295.067975 C1364.77791,292.705902 1361.69158,291.330663 1358.43784,291.245054"></path>
            <path stroke="#FEAD01" id="路径" d="M1419.28112,312.016819 C1416.44613,333.170217 1421.89804,351.870257 1435.63684,368.11694 C1441.08875,374.659228 1446.21354,374.386632 1451.01122,367.299154 L1479.96084,325.428509 C1486.50313,315.942192 1484.10429,310.381247 1472.76433,308.745675 L1431.87503,302.530501 C1424.46043,301.44012 1420.26246,304.602226 1419.28112,312.016819"></path>
            <path stroke="#FEAD01" id="路径" d="M1524.28485,337.6953 L1530.50002,385.290446 C1531.91752,395.649069 1537.20587,398.375022 1546.36507,393.468306 C1563.48406,384.200065 1576.62315,370.842893 1585.78235,353.396791 C1589.70773,346.091236 1587.69052,341.239039 1579.73074,338.8402 L1537.86009,326.082738 C1527.39243,322.920632 1522.86735,326.791486 1524.28485,337.6953"></path>
            <path stroke="#FEAD01" id="路径" d="M1684.24379,395.921664 C1689.80474,385.454003 1686.96974,378.366524 1675.73882,374.659228 L1643.51805,363.864452 C1634.795,361.029461 1630.26991,364.191567 1629.9428,373.35077 L1628.30723,419.146787 C1628.08915,426.888495 1631.79645,430.214158 1639.42912,429.123776 C1659.3831,426.179747 1674.32132,415.112376 1684.24379,395.921664"></path>
            <path stroke="#FFE780" id="路径" d="M1328.50687,717.965798 C1294.15986,612.962073 1293.9963,494.710215 1304.95464,387.580247 C1305.36367,385.388996 1304.57261,383.145979 1302.87945,381.696121 C1301.18629,380.246262 1298.84825,379.809828 1296.74606,380.55122 C1294.64386,381.292612 1293.09688,383.099195 1292.68785,385.290446 C1261.93909,501.852213 1268.5359,614.761202 1312.47827,724.017414 C1314.11384,728.160863 1317.76662,729.360283 1323.4366,727.615673 C1328.45235,726.089139 1330.14245,722.872514 1328.50687,717.965798"></path>
            <path stroke="#806F20" id="路径" d="M1409.63125,442.699024 L1405.2152,418.001887 C1402.38021,402.082319 1398.23676,401.755204 1392.78485,417.020543 C1385.91545,436.320293 1390.49505,452.021785 1406.52366,464.125018 C1411.53941,467.941353 1417.04584,468.813658 1423.04294,466.741933 C1439.61673,460.853874 1451.01122,448.587084 1457.22639,429.941562 C1462.13311,415.43949 1459.08004,413.531323 1448.06719,424.21706 L1424.02428,447.278626 C1416.28257,454.693219 1411.48489,453.166685 1409.63125,442.699024"></path>
            <path stroke="#806F20" id="路径" d="M1476.52614,512.701507 L1476.03547,478.354495 C1475.81739,462.980117 1471.89202,461.998774 1464.25935,475.410465 C1413.06595,565.857598 1583.49255,566.511827 1556.99629,502.724518 C1552.63476,491.929742 1548.54583,492.038781 1544.7295,503.051632 C1534.80703,531.728662 1515.94343,540.560751 1488.1387,529.547899 C1480.50603,526.60387 1476.63518,520.988406 1476.52614,512.701507"></path>
            <path stroke="#80690D" id="路径" d="M1609.33459,504.687204 L1602.46519,478.02738 C1599.41212,466.142223 1595.59579,465.869628 1591.01619,477.209594 C1585.89139,489.858018 1587.25437,502.669999 1595.10512,515.645537 C1598.59434,521.206482 1603.61009,524.150512 1610.15238,524.477626 C1633.48654,525.458969 1647.82505,514.173522 1653.16792,490.621285 C1653.65458,488.944809 1652.92395,487.153812 1651.4035,486.296122 C1649.88305,485.438432 1647.97232,485.739434 1646.78919,487.023026 L1624.05474,508.776134 C1616.74919,515.863613 1611.84247,514.500637 1609.33459,504.687204"></path>
            <path stroke="#FE6C59" id="路径" d="M1431.37454,521.561401 C1435.85401,505.83735 1419.13267,487.292654 1394.02625,480.140539 C1381.96928,476.706086 1369.55168,476.412115 1359.50531,479.3233 C1349.45895,482.234486 1342.60681,488.112345 1340.45636,495.663753 C1335.97689,511.387804 1352.69824,529.932501 1377.80465,537.084615 C1389.86162,540.519069 1402.27923,540.813039 1412.32559,537.901854 C1422.37196,534.990669 1429.22409,529.112809 1431.37454,521.561401"></path>
            <path stroke="#FE6C59" id="路径" d="M1650.92719,589.32315 C1653.18482,581.893866 1650.50255,573.296003 1643.47046,565.421021 C1636.43838,557.546039 1625.63251,551.039026 1613.43006,547.331474 C1588.02009,539.611219 1563.61066,545.894081 1558.90991,561.364682 C1556.65228,568.793966 1559.33454,577.391829 1566.36663,585.266812 C1573.39872,593.141794 1584.20459,599.648806 1596.40703,603.356358 C1621.81701,611.076614 1646.22644,604.793752 1650.92719,589.32315"></path>
            <path stroke="#FEAD01" id="路径" d="M620.631297,872.363798 C613.216704,875.525903 611.308537,880.650696 614.906795,887.738175 C618.286978,894.389501 623.684365,897.224492 631.098959,896.243149 L636.496346,895.425363 C639.670239,894.949026 642.328497,892.748554 643.366504,889.738334 C644.404511,886.728114 643.6448,883.4228 641.403062,881.195887 L635.515003,875.307827 C631.153478,871.05534 626.192242,870.073997 620.631297,872.363798"></path>
            <path stroke="#FEAD01" id="路径" d="M745.589001,895.425363 L734.303554,900.659194 C729.8335,902.81403 727.407149,907.784609 728.46746,912.614914 C729.527771,917.445218 733.790087,920.838485 738.719598,920.77673 L748.369473,920.77673 C753.82138,920.77673 756.547333,918.050776 756.547333,912.59887 L756.547333,902.294766 C756.547333,894.334982 752.894556,892.045181 745.589001,895.425363"></path>
            <path stroke="#806F20" id="路径" d="M727.810333,1074.52076 C733.18917,1074.54867 738.359794,1072.26662 742.184713,1068.17638 C746.009632,1064.08614 748.175525,1058.52276 748.206243,1052.71015 C748.236455,1046.89739 746.128892,1041.31149 742.346894,1037.18136 C738.564895,1033.05122 733.418282,1030.71518 728.039313,1030.68691 C722.660475,1030.659 717.489852,1032.94105 713.664933,1037.0313 C709.840014,1041.12154 707.674121,1046.68491 707.643402,1052.49752 C707.613191,1058.31028 709.720754,1063.89618 713.502752,1068.02632 C717.284751,1072.15645 722.431364,1074.49249 727.810333,1074.52076"></path>
            <path stroke="#80690D" id="路径" d="M583.340255,1067.97821 C583.340255,1056.50628 574.040419,1047.20645 562.56849,1047.20645 C551.096561,1047.20645 541.796725,1056.50628 541.796725,1067.97821 C541.796725,1079.45014 551.096561,1088.74998 562.56849,1088.74998 C574.040419,1088.74998 583.340255,1079.45014 583.340255,1067.97821"></path>
            <path stroke="#806F20" id="路径" d="M647.781793,1097.58207 C632.734531,1093.32958 624.120518,1083.78874 621.939755,1068.95956 C621.573643,1065.98895 619.099158,1063.77826 616.094752,1063.73766 C613.090347,1063.69706 610.440922,1065.83851 609.836522,1068.796 C596.261274,1135.20022 708.461516,1117.86316 686.217736,1062.09015 C682.946592,1053.69422 679.511891,1053.6397 675.913632,1061.9266 L663.483285,1090.22199 C660.430217,1097.30947 655.196386,1099.76283 647.781793,1097.58207"></path>
            <path stroke="#FEAD01" id="路径" d="M458.873223,1083.51615 C445.62509,1063.0715 426.32534,1082.04413 435.975215,1102.8159 C437.234311,1105.5944 439.773082,1107.58116 442.772776,1108.13545 C445.772471,1108.68975 448.85359,1107.74144 451.022478,1105.59637 L457.074094,1099.54475 C461.98081,1094.63804 462.58052,1089.29517 458.873223,1083.51615"></path>
            <path stroke="#FE6C59" id="路径" d="M770.084963,1100.95298 C768.513445,1090.31978 752.173283,1083.92504 733.587173,1086.66953 C724.66113,1087.98748 716.400167,1091.28013 710.621668,1095.82312 C704.843168,1100.36611 702.020497,1105.78728 702.774632,1110.89399 C704.34615,1121.52719 720.686312,1127.92193 739.272422,1125.17744 C748.198465,1123.85949 756.459428,1120.56683 762.237927,1116.02385 C768.016427,1111.48086 770.839098,1106.05969 770.084963,1100.95298"></path>
            <path stroke="#FE9B02" id="路径" d="M1274.20588,1474.25431 C1294.2689,1484.50389 1315.25874,1484.2313 1337.17541,1473.43652"></path>
            <path stroke="#FFBE01" id="路径" d="M1337.17541,1473.43652 C1348.95152,1512.19958 1445.28672,1463.29597 1463.76868,1452.5012 C1467.72465,1450.1424 1469.91267,1445.66854 1469.34575,1441.09774 C1468.77883,1436.52694 1465.56413,1432.72319 1461.15177,1431.40232 L1030.34209,1300.55656 C1018.97052,1297.13938 1006.95958,1303.47242 1003.35515,1314.78603 L978.330901,1392.96638 C977.282718,1396.13812 977.651165,1399.60764 979.342106,1402.4885 C981.033047,1405.36936 983.882694,1407.38252 987.16299,1408.01364 L1110.48512,1432.05655 C1111.68454,1432.27462 1112.66588,1432.81981 1113.42915,1433.69212 C1114.51953,1434.67346 1115.50088,1435.70933 1116.37318,1436.79971 C1120.18952,1441.05219 1124.7146,1442.14258 1129.94843,1440.07085 C1183.70423,1419.13553 1239.25916,1407.46845 1296.61322,1405.06961 C1311.55144,1404.41538 1311.9876,1406.54162 1297.92168,1411.44834 C1273.22454,1419.95331 1173.78176,1436.30903 1165.11323,1450.86563 C1162.1692,1455.88138 1163.53217,1458.66185 1169.20216,1459.20704 C1209.9279,1463.13242 1231.35389,1480.30592 1274.20588,1474.25431"></path>
            <path stroke="#FEAD01" id="路径" d="M1337.17541,1473.43652 L1435.30973,1448.57583 C1441.5249,1446.94025 1442.07009,1444.2143 1436.9453,1440.39796 C1420.75314,1428.13117 1299.23013,1466.07645 1274.20588,1474.25431"></path>
            <path stroke="#FEAD01" id="路径" d="M1181.35119,1361.05146 C1180.32457,1356.93197 1176.15284,1354.42468 1172.03333,1355.45126 L1021.26957,1393.04161 C1017.15074,1394.06897 1014.64433,1398.24047 1015.67101,1402.35947 L1016.06682,1403.94597 C1017.09344,1408.06546 1021.26517,1410.57275 1025.38467,1409.54617 L1176.14843,1371.95582 C1180.26726,1370.92846 1182.77368,1366.75696 1181.747,1362.63796 L1181.35119,1361.05146"></path>
            <path fill-rule="nonzero" fill="#000319" id="形状" d="M495.182922,733.01306 L176.900605,110.677901 C172.129156,101.40146 172.275631,90.3611368 177.291503,81.2145465 C182.307375,72.0679562 191.537831,66.0091708 201.924857,65.0454417 C423.054196,44.2191578 647.454679,22.738645 875.126306,0.60390352 C888.101844,-0.704554107 899.496329,0.11323191 909.309761,3.05726157 C922.707897,7.00635244 930.387444,21.0489522 926.483268,34.4602446 L731.686639,708.152365 C730.269143,713.277158 731.414043,717.747721 735.12134,721.564056 L757.038005,743.480721 C761.508569,747.842247 764.070965,753.130596 764.725194,759.34577 L774.375069,848.648003 C775.029297,854.754139 777.918808,859.442778 783.0436,862.713923 C1049.47828,1035.921 854.681656,1435.32769 552.264386,1329.34262 C366.463403,1264.24686 338.168007,1021.0373 474.411158,891.5 C478.336531,887.683656 480.081141,882.995016 479.644988,877.434071 C476.210287,834.254969 456.583422,782.73445 492.40245,748.550995 C497.200128,743.971393 498.126952,738.792081 495.182922,733.01306 Z M805.123823,26.9366133 C790.07656,23.8835455 776.882946,23.9380645 765.54298,27.1001705 C760.309149,28.4086281 756.928967,31.6797722 755.402433,36.9136027 C681.91073,283.012675 634.097507,446.406321 611.962766,527.094541 C604.657211,553.372732 612.180842,576.924969 634.53366,597.751253 L674.768732,680.184084 C676.731418,700.465177 682.401401,712.950043 691.778681,717.638683 C704.645181,724.071933 713.095636,720.419156 717.130047,706.680351 C775.792564,504.196533 833.746333,301.98531 890.991355,100.046683 C891.209431,99.3924544 895.35288,88.0524883 903.421702,66.0267849 C914.870706,34.6238018 903.639778,19.3584628 869.728918,20.2307679 C846.176681,15.7602044 824.641649,17.9954861 805.123823,26.9366133 Z M383.146238,110.841459 C390.342755,135.702154 400.537821,154.892865 413.731435,168.413594 C415.148931,182.806628 421.146028,194.96438 431.722728,204.886851 C435.211948,208.048956 439.300878,209.411933 443.989518,208.975781 L684.745721,184.605757 C690.851857,183.951529 694.995306,180.843942 697.176069,175.282997 C701.75567,163.724954 703.609319,151.894317 702.737014,139.791084 C713.531789,120.491334 719.201772,99.8286069 719.746963,77.8029035 L730.705295,41.983876 C732.667982,35.4415878 730.269143,32.4975582 723.508778,33.151787 L375.45905,63.0827552 C368.480609,63.6279459 365.427541,67.3897616 366.299846,74.3682022 C368.153495,91.3781514 373.768959,103.535904 383.146238,110.841459 Z M294.498234,75.0224311 C271.491187,70.98802 249.68356,73.7139734 229.075353,83.2002912 C214.137128,78.7297277 202.197452,80.8014522 193.256325,89.415465 C188.567685,93.9950667 187.69538,99.1743781 190.63941,104.953399 L534.273094,777.664177 C536.780971,782.679931 540.815382,785.787518 546.376327,786.986937 C561.750704,790.476158 574.562685,787.150495 584.81227,777.009948 C606.183745,789.440295 627.991372,789.440295 650.235151,777.009948 L680.656791,777.173505 C685.310505,777.163416 689.626355,774.741605 692.059778,770.774792 C694.493201,766.807979 694.696329,761.863237 692.596467,757.710198 L346.509425,79.9291472 C343.892509,74.8043548 339.74906,71.751287 334.079077,70.7699438 C320.885463,68.4801429 307.691848,69.8976387 294.498234,75.0224311 Z M688.834651,211.265581 C689.532923,208.702228 688.942457,205.959421 687.251257,203.910468 C685.560058,201.861515 682.978921,200.761803 680.329677,200.961478 L450.85892,222.223914 C448.180335,222.481526 445.799912,224.040385 444.493073,226.392694 C443.186235,228.745003 443.120257,231.589666 444.316632,234.000033 L585.95717,514.991308 C587.46569,518.029535 590.69324,519.82108 594.069584,519.494337 C597.445927,519.167594 600.270051,516.790404 601.16799,513.519293 L688.834651,211.265581 Z M747.100269,848.705248 C755.94833,847.411914 759.442606,821.150663 754.905219,790.047093 C752.72603,775.109595 748.948006,761.03023 744.402275,750.906317 C739.856544,740.782403 734.915471,735.443244 730.666042,736.063402 C721.817981,737.356736 718.323705,763.617987 722.861092,794.721558 C725.040281,809.659055 728.818305,823.73842 733.364036,833.862334 C737.909767,843.986247 742.850841,849.325406 747.100269,848.705248 Z M520.207175,862.550365 L516.118245,765.397387 C516.075633,764.182536 515.551772,763.034469 514.662083,762.206138 C513.772394,761.377807 512.589881,760.937181 511.375086,760.981342 L504.015011,761.308456 C492.964932,761.905337 484.780447,779.955049 485.696605,801.707086 L486.841505,828.857581 C487.273456,839.354139 489.808811,849.337457 493.889036,856.608234 C497.969261,863.879011 503.259603,867.840732 508.594613,867.620639 L515.954687,867.293524 C518.419762,867.118811 520.301617,865.019818 520.207175,862.550365 Z M697.012511,790.258081 C662.992613,795.982584 566.166749,814.30099 537.707795,799.580842 C529.966088,795.546431 526.749463,797.836232 528.05792,806.450245 L533.455308,840.6337 C534.436651,847.06695 537.980391,849.084156 544.086526,846.685317 C595.225412,825.859033 647.94535,820.788759 702.246342,831.474497 C710.642278,833.110069 714.022461,829.729887 712.386889,821.33395 L707.64373,797.618156 C706.44431,791.730096 702.900571,789.276738 697.012511,790.258081 Z M413.731435,1157.93467 C462.689558,1279.40316 544.304603,1336.75722 658.576569,1329.99685 C869.074689,1317.56651 973.097071,1066.99687 822.624444,916.6878 C636.005675,729.414802 356.813528,903.276109 413.731435,1157.93467 Z"></path>
            <path fill-rule="nonzero" fill="#FFFFFF" id="路径" d="M869.728918,20.2307679 L735.448454,470.99442 C697.66674,486.368798 716.148704,532.491929 659.06724,540.506232 L805.123823,26.9366133 C824.641649,17.9954861 846.176681,15.7602044 869.728918,20.2307679 Z"></path>
            <path fill-rule="nonzero" fill="#4217A6" id="路径" d="M674.768732,680.184084 L735.448454,470.99442 L869.728918,20.2307679 C903.639778,19.3584628 914.870706,34.6238018 903.421702,66.0267849 C895.35288,88.0524883 891.209431,99.3924544 890.991355,100.046683 C833.746333,301.98531 775.792564,504.196533 717.130047,706.680351 C713.095636,720.419156 704.645181,724.071933 691.778681,717.638683 C682.401401,712.950043 676.731418,700.465177 674.768732,680.184084 Z"></path>
            <path fill-rule="nonzero" fill="#FC09B2" id="路径" d="M805.123823,26.9366133 L659.06724,540.506232 L634.53366,597.751253 C612.180842,576.924969 604.657211,553.372732 611.962766,527.094541 C634.097507,446.406321 681.91073,283.012675 755.402433,36.9136027 C756.928967,31.6797722 760.309149,28.4086281 765.54298,27.1001705 C776.882946,23.9380645 790.07656,23.8835455 805.123823,26.9366133 Z"></path>
            <path fill-rule="nonzero" fill="#4217A6" id="路径" d="M719.746963,77.8029035 L668.880672,82.0553908 L383.146238,110.841459 C373.768959,103.535904 368.153495,91.3781514 366.299846,74.3682022 C365.427541,67.3897616 368.480609,63.6279459 375.45905,63.0827552 L723.508778,33.151787 C730.269143,32.4975582 732.667982,35.4415878 730.705295,41.983876 L719.746963,77.8029035 Z"></path>
            <path fill-rule="nonzero" fill="#FC09B2" id="路径" d="M650.235151,777.009948 L294.498234,75.0224311 C307.691848,69.8976387 320.885463,68.4801429 334.079077,70.7699438 C339.74906,71.751287 343.892509,74.8043548 346.509425,79.9291472 L692.596467,757.710198 C694.696329,761.863237 694.493201,766.807979 692.059778,770.774792 C689.626355,774.741605 685.310505,777.163416 680.656791,777.173505 L650.235151,777.009948 Z"></path>
            <path fill-rule="nonzero" fill="#FFFFFF" id="路径" d="M294.498234,75.0224311 L650.235151,777.009948 C627.991372,789.440295 606.183745,789.440295 584.81227,777.009948 L229.075353,83.2002912 C249.68356,73.7139734 271.491187,70.98802 294.498234,75.0224311 Z"></path>
            <path fill-rule="nonzero" fill="#FFFFFF" id="路径" d="M668.880672,82.0553908 C652.0888,114.766831 624.065999,135.156963 584.81227,143.225785 L413.731435,168.413594 C400.537821,154.892865 390.342755,135.702154 383.146238,110.841459 L668.880672,82.0553908 Z"></path>
            <path fill-rule="nonzero" fill="#D1D4DC" id="路径" d="M668.880672,82.0553908 L719.746963,77.8029035 C719.201772,99.8286069 713.531789,120.491334 702.737014,139.791084 L584.81227,143.225785 C624.065999,135.156963 652.0888,114.766831 668.880672,82.0553908 Z"></path>
            <path fill-rule="nonzero" fill="#4217A6" id="路径" d="M229.075353,83.2002912 L584.81227,777.009948 C574.562685,787.150495 561.750704,790.476158 546.376327,786.986937 C540.815382,785.787518 536.780971,782.679931 534.273094,777.664177 L190.63941,104.953399 C187.69538,99.1743781 188.567685,93.9950667 193.256325,89.415465 C202.197452,80.8014522 214.137128,78.7297277 229.075353,83.2002912 Z"></path>
            <path fill-rule="nonzero" fill="#BD0B95" id="路径" d="M702.737014,139.791084 C703.609319,151.894317 701.75567,163.724954 697.176069,175.282997 C694.995306,180.843942 690.851857,183.951529 684.745721,184.605757 L443.989518,208.975781 C439.300878,209.411933 435.211948,208.048956 431.722728,204.886851 C421.146028,194.96438 415.148931,182.806628 413.731435,168.413594 L584.81227,143.225785 L702.737014,139.791084 Z"></path>
            <path fill-rule="nonzero" fill="#000E3F" id="形状" d="M1455.75438,953.48817 C1479.47017,974.423492 1508.25624,1024.79911 1455.59082,1030.68717 C1450.05945,1031.25959 1445.19787,1034.60327 1442.68454,1039.5638 C1440.1712,1044.52433 1440.35048,1050.42204 1443.16047,1055.22075 L1499.58771,1152.37373 C1502.4227,1157.17141 1503.73116,1162.35072 1503.51308,1167.91166 C1501.76847,1239.7678 1486.93928,1308.84345 1459.02552,1375.13864 C1456.19053,1381.89901 1458.37129,1385.71534 1465.56781,1386.58764 C1488.57486,1389.20456 1506.51163,1399.6177 1519.37813,1417.82707 C1523.41254,1423.49705 1524.39388,1429.65771 1522.32216,1436.30903 L1477.18037,1582.52917 C1473.10218,1595.61596 1459.20078,1602.93248 1446.1045,1598.88489 L953.143092,1447.75804 C944.238793,1445.04265 936.783031,1438.89197 932.424584,1430.66617 C928.066137,1422.44036 927.164107,1412.81718 929.917969,1403.92471 L972.933514,1264.24686 C976.80043,1251.68013 989.733102,1244.24921 1002.53737,1247.23691 L1045.55291,1257.2139 C1052.96751,1258.84947 1057.38355,1255.95996 1058.80105,1248.54537 C1072.43081,1178.76096 1098.59996,1114.15586 1137.3085,1054.73008 C1140.47061,1049.9324 1144.61406,1046.33414 1149.73885,1043.9353 L1252.94345,995.0317 C1261.23034,991.106327 1262.8114,985.327306 1257.6866,977.694637 L1247.21894,961.829588 C1244.16588,957.249986 1242.74838,952.179713 1242.96646,946.618768 C1243.9478,919.141158 1257.30497,907.31052 1283.03797,911.126855 C1289.03507,911.99916 1293.34207,909.65484 1295.95899,904.093895 C1307.89867,878.578971 1269.95339,870.401111 1254.90613,863.041037 C1249.89038,860.53316 1246.61923,856.498749 1245.0927,850.937804 C1238.11426,824.986728 1247.49154,807.86774 1273.22454,799.580842 C1280.09394,797.400079 1282.16567,792.929516 1279.43971,786.169151 L1257.85016,732.522389 C1255.45132,726.634329 1251.58047,721.945689 1246.2376,718.456469 C1121.60701,638.804111 961.320952,459.545416 1009.40677,300.404257 C1049.96896,166.123793 1189.97392,127.197179 1296.12255,229.420431 C1300.04792,233.236766 1304.73656,235.472048 1310.18847,236.126276 C1488.90197,258.915247 1658.40175,310.926437 1818.68781,392.159848 C1823.8126,394.776764 1829.20999,395.649069 1834.87998,394.776764 C1982.24502,372.860098 2079.07088,482.279867 2031.31218,619.995033 C1976.84763,777.009948 1743.77861,832.619397 1597.39492,829.51181 C1592.05205,829.402772 1587.19985,830.874787 1582.83832,833.927855 L1536.55164,867.457081 C1531.53588,871.05534 1531.15425,875.089751 1535.40674,879.560314 C1546.20151,890.900281 1549.0365,904.857162 1543.91171,921.430959 C1541.24735,930.165955 1535.01804,937.372518 1526.74422,941.291696 C1518.4704,945.210874 1508.91327,945.482097 1500.40549,942.039166 C1486.88477,936.587259 1473.09144,935.714954 1459.02552,939.422251 C1449.21209,942.039166 1448.12171,946.727806 1455.75438,953.48817 Z M1079.08214,402.300395 C1050.45963,293.20774 1145.15925,179.371927 1253.59767,269.655503 C1258.72247,273.90799 1262.8114,273.035685 1265.86446,267.038588 L1276.16857,246.103266 C1279.00356,240.433283 1278.13126,235.417529 1273.55165,231.056003 C1210.09146,170.539838 1129.62131,168.577151 1067.96025,233.509361 C927.464611,381.037959 1105.08773,603.80287 1238.38685,692.941545 C1242.42127,695.558461 1244.00232,694.522598 1243.13001,689.833959 C1236.91484,656.468289 1234.29792,636.677867 1207.96521,611.326501 C1141.99714,548.302459 1099.03612,478.62709 1079.08214,402.300395 Z M1229.55477,597.751253 C1221.04979,498.472031 1231.35389,404.91731 1255.23325,307.764331 C1256.5417,302.857615 1255.61488,298.441571 1252.45277,294.516198 C1195.69842,220.915456 1102.63438,253.299783 1093.96584,344.728259 C1084.80664,441.227009 1156.77181,536.580859 1220.88623,601.676626 C1222.37741,603.188333 1224.65393,603.613082 1226.58929,602.736691 C1228.52466,601.860299 1229.7084,599.870237 1229.55477,597.751253 L1229.55477,597.751253 Z M1441.03423,845.867531 L1501.87751,863.041037 C1507.32942,864.567571 1512.45421,863.804304 1517.25189,860.751236 C1674.92103,759.34577 1778.07111,612.853035 1826.70212,421.273031 C1668.2697,328.91773 1498.33377,272.817609 1316.89431,252.972668 C1298.24879,250.900944 1285.982,259.460437 1280.09394,278.651149 C1225.57487,457.800806 1230.97226,629.917503 1296.2861,795.00124 C1298.46687,800.562185 1302.44676,804.214963 1308.22578,805.959573 L1441.03423,845.867531 Z M1848.61878,455.947158 C1923.03731,446.133726 1980.60944,487.023026 1970.63245,560.787325 C1953.29539,687.871272 1778.6163,750.677238 1672.46767,764.416043 C1666.90673,765.070272 1662.05453,767.305554 1657.91108,771.121889 L1620.94715,803.996887 C1612.98737,810.975327 1614.29583,814.410028 1624.87253,814.303507 C1767.82152,811.847632 1983.55347,754.766168 2019.3725,589.246278 C2043.90608,475.901137 1969.97823,393.79542 1853.03482,407.043554 C1846.60157,407.806821 1843.05784,411.405079 1842.40361,417.838329 L1839.45958,447.115069 C1838.80535,453.875433 1841.85842,456.819463 1848.61878,455.947158 Z M1827.35634,479.008723 C1791.86443,577.47016 1745.7413,653.197145 1684.89802,736.938433 C1681.62688,741.408997 1682.77178,743.317164 1688.33272,742.662935 C1784.01369,730.723259 1999.09141,645.182842 1948.06156,518.589567 C1929.90671,473.284221 1882.80224,460.363202 1838.64179,469.195291 C1833.08085,470.394711 1829.31903,473.665855 1827.35634,479.008723 Z M1528.52916,912.005157 C1531.6006,902.08196 1526.04641,891.547671 1516.12334,888.475818 L1283.63332,816.507377 C1273.71012,813.435928 1263.17583,818.990119 1260.10398,828.913191 L1259.33035,831.413981 C1256.25891,841.337178 1261.8131,851.871467 1271.73617,854.94332 L1504.22619,926.91176 C1514.14939,929.983209 1524.68368,924.429019 1527.75553,914.505947 L1528.52916,912.005157 Z M1446.76527,941.244278 C1449.06246,933.729297 1444.83299,925.77489 1437.31821,923.477059 L1329.70738,890.577528 C1322.1924,888.280345 1314.23799,892.509808 1311.94016,900.024592 L1311.65394,900.96341 C1309.35676,908.478392 1313.58622,916.432799 1321.101,918.730629 L1428.71183,951.630161 C1436.22681,953.927343 1444.18122,949.69788 1446.47905,942.183097 L1446.76527,941.244278 Z M1465.85076,1001.23706 C1467.339,996.43012 1466.85666,991.228852 1464.50986,986.777556 C1462.16305,982.326261 1458.14403,978.989595 1453.337,977.501639 L1285.84461,925.654006 C1275.83515,922.555956 1265.20936,928.158459 1262.11083,938.167767 L1261.8197,939.10495 C1260.33145,943.91189 1260.8138,949.113159 1263.1606,953.564454 C1265.50741,958.015749 1269.52643,961.352416 1274.33346,962.840371 L1441.82585,1014.688 C1451.8353,1017.78605 1462.4611,1012.18355 1465.55963,1002.17424 L1465.85076,1001.23706 Z M1142.54233,1069.9409 C1139.5983,1074.30242 1137.96273,1078.60943 1137.63562,1082.86192 C1137.19946,1090.05844 1140.41609,1094.69256 1147.28549,1096.76428 L1470.63808,1195.87995 C1478.26171,1198.17515 1486.52445,1195.35754 1491.1326,1188.89126 C1495.74075,1182.42498 1495.65471,1173.76885 1490.91918,1167.42099 C1461.15177,1126.85881 1438.63539,1082.64384 1423.37005,1034.7761 C1421.62544,1029.43323 1418.02718,1025.94401 1412.57528,1024.30844 L1353.53113,1007.29849 L1297.59456,988.816526 C1292.90592,987.289992 1288.43536,987.726145 1284.18287,990.124984 L1142.54233,1069.9409 Z M1080.55137,1268.6629 L1430.89368,1374.64797 C1436.01848,1376.1745 1439.83481,1374.53893 1442.34269,1369.74125 C1466.00396,1322.74582 1478.43431,1272.26116 1479.63373,1218.28728 L1137.47206,1111.9751 C1130.0383,1109.71441 1122.04007,1112.99574 1118.33587,1119.82585 C1092.92998,1165.62186 1080.33608,1215.23421 1080.55137,1268.6629 Z M1504.49115,1439.22035 C1508.15581,1427.3063 1501.46889,1414.67716 1489.55511,1411.01164 L1012.75806,1264.32864 C1007.03627,1262.56836 1000.84956,1263.15326 995.559044,1265.95465 C990.268525,1268.75603 986.307604,1273.54441 984.547711,1279.26631 L945.786289,1405.26588 C942.121629,1417.17993 948.808549,1429.80907 960.722333,1433.47459 L1437.51939,1580.1576 C1443.24117,1581.91787 1449.42788,1581.33297 1454.7184,1578.53158 C1460.00892,1575.7302 1463.96984,1570.94182 1465.72973,1565.21992 L1504.49115,1439.22035 Z"></path>
            <path fill-rule="nonzero" fill="#FFCF00" id="路径" d="M1253.59767,269.655503 C1145.15925,179.371927 1050.45963,293.20774 1079.08214,402.300395 C1099.03612,478.62709 1141.99714,548.302459 1207.96521,611.326501 C1234.29792,636.677867 1236.91484,656.468289 1243.13001,689.833959 C1244.00232,694.522598 1242.42127,695.558461 1238.38685,692.941545 C1105.08773,603.80287 927.464611,381.037959 1067.96025,233.509361 C1129.62131,168.577151 1210.09146,170.539838 1273.55165,231.056003 C1278.13126,235.417529 1279.00356,240.433283 1276.16857,246.103266 L1265.86446,267.038588 C1262.8114,273.035685 1258.72247,273.90799 1253.59767,269.655503 Z"></path>
            <path fill-rule="nonzero" fill="#FFFFFF" id="路径" d="M688.834651,211.265581 L601.16799,513.519293 C600.270051,516.790404 597.445927,519.167594 594.069584,519.494337 C590.69324,519.82108 587.46569,518.029535 585.95717,514.991308 L444.316632,234.000033 C443.120257,231.589666 443.186235,228.745003 444.493073,226.392694 C445.799912,224.040385 448.180335,222.481526 450.85892,222.223914 L680.329677,200.961478 C682.978921,200.761803 685.560058,201.861515 687.251257,203.910468 C688.942457,205.959421 689.532923,208.702228 688.834651,211.265581 Z"></path>
            <path fill-rule="nonzero" fill="#FFFFFF" id="路径" d="M1255.23325,307.764331 C1231.35389,404.91731 1221.04979,498.472031 1229.55477,597.751253 C1229.7084,599.870237 1228.52466,601.860299 1226.58929,602.736691 C1224.65393,603.613082 1222.37741,603.188333 1220.88623,601.676626 C1156.77181,536.580859 1084.80664,441.227009 1093.96584,344.728259 C1102.63438,253.299783 1195.69842,220.915456 1252.45277,294.516198 C1255.61488,298.441571 1256.5417,302.857615 1255.23325,307.764331 Z"></path>
            <path fill-rule="nonzero" fill="#FFCF00" id="形状" d="M1826.70212,421.273031 C1796.49855,432.285882 1770.38392,429.559929 1748.35821,413.09517 C1742.90631,409.060759 1738.16315,409.824026 1734.12874,415.384971 C1720.71705,434.139531 1718.37273,453.875433 1727.09578,474.592679 C1729.05846,479.390357 1729.00395,484.188035 1726.93222,488.985713 C1688.49628,575.180359 1650.22389,622.939062 1570.57153,689.670401 C1518.01515,733.721808 1474.83605,785.787518 1441.03423,845.867531 L1308.22578,805.959573 C1302.44676,804.214963 1298.46687,800.562185 1296.2861,795.00124 C1230.97226,629.917503 1225.57487,457.800806 1280.09394,278.651149 C1285.982,259.460437 1298.24879,250.900944 1316.89431,252.972668 C1498.33377,272.817609 1668.2697,328.91773 1826.70212,421.273031 Z M1358.43784,291.245054 L1321.47391,290.590825 C1318.22024,290.502903 1315.065,291.711701 1312.70293,293.951068 C1310.34086,296.190436 1308.96562,299.276761 1308.88001,302.530501 L1308.88001,304.656745 C1308.60862,317.160321 1311.40427,329.220772 1316.65068,338.179563 C1321.8971,347.138354 1329.16356,352.259975 1336.84829,352.415448 L1340.44655,352.415448 C1356.42321,352.751915 1369.82023,331.960904 1370.37752,305.965202 L1370.37752,303.838959 C1370.46544,300.58528 1369.25664,297.430048 1367.01727,295.067975 C1364.77791,292.705902 1361.69158,291.330663 1358.43784,291.245054 L1358.43784,291.245054 Z M1419.28112,312.016819 C1416.44613,333.170217 1421.89804,351.870257 1435.63684,368.11694 C1441.08875,374.659228 1446.21354,374.386632 1451.01122,367.299154 L1479.96084,325.428509 C1486.50313,315.942192 1484.10429,310.381247 1472.76433,308.745675 L1431.87503,302.530501 C1424.46043,301.44012 1420.26246,304.602226 1419.28112,312.016819 Z M1524.28485,337.6953 L1530.50002,385.290446 C1531.91752,395.649069 1537.20587,398.375022 1546.36507,393.468306 C1563.48406,384.200065 1576.62315,370.842893 1585.78235,353.396791 C1589.70773,346.091236 1587.69052,341.239039 1579.73074,338.8402 L1537.86009,326.082738 C1527.39243,322.920632 1522.86735,326.791486 1524.28485,337.6953 Z M1684.24379,395.921664 C1689.80474,385.454003 1686.96974,378.366524 1675.73882,374.659228 L1643.51805,363.864452 C1634.795,361.029461 1630.26991,364.191567 1629.9428,373.35077 L1628.30723,419.146787 C1628.08915,426.888495 1631.79645,430.214158 1639.42912,429.123776 C1659.3831,426.179747 1674.32132,415.112376 1684.24379,395.921664 Z M1328.50687,717.965798 C1294.15986,612.962073 1293.9963,494.710215 1304.95464,387.580247 C1305.36367,385.388996 1304.57261,383.145979 1302.87945,381.696121 C1301.18629,380.246262 1298.84825,379.809828 1296.74606,380.55122 C1294.64386,381.292612 1293.09688,383.099195 1292.68785,385.290446 C1261.93909,501.852213 1268.5359,614.761202 1312.47827,724.017414 C1314.11384,728.160863 1317.76662,729.360283 1323.4366,727.615673 C1328.45235,726.089139 1330.14245,722.872514 1328.50687,717.965798 Z M1409.63125,442.699024 L1405.2152,418.001887 C1402.38021,402.082319 1398.23676,401.755204 1392.78485,417.020543 C1385.91545,436.320293 1390.49505,452.021785 1406.52366,464.125018 C1411.53941,467.941353 1417.04584,468.813658 1423.04294,466.741933 C1439.61673,460.853874 1451.01122,448.587084 1457.22639,429.941562 C1462.13311,415.43949 1459.08004,413.531323 1448.06719,424.21706 L1424.02428,447.278626 C1416.28257,454.693219 1411.48489,453.166685 1409.63125,442.699024 Z M1476.52614,512.701507 L1476.03547,478.354495 C1475.81739,462.980117 1471.89202,461.998774 1464.25935,475.410465 C1413.06595,565.857598 1583.49255,566.511827 1556.99629,502.724518 C1552.63476,491.929742 1548.54583,492.038781 1544.7295,503.051632 C1534.80703,531.728662 1515.94343,540.560751 1488.1387,529.547899 C1480.50603,526.60387 1476.63518,520.988406 1476.52614,512.701507 Z M1609.33459,504.687204 L1602.46519,478.02738 C1599.41212,466.142223 1595.59579,465.869628 1591.01619,477.209594 C1585.89139,489.858018 1587.25437,502.669999 1595.10512,515.645537 C1598.59434,521.206482 1603.61009,524.150512 1610.15238,524.477626 C1633.48654,525.458969 1647.82505,514.173522 1653.16792,490.621285 C1653.65458,488.944809 1652.92395,487.153812 1651.4035,486.296122 C1649.88305,485.438432 1647.97232,485.739434 1646.78919,487.023026 L1624.05474,508.776134 C1616.74919,515.863613 1611.84247,514.500637 1609.33459,504.687204 Z M1431.37454,521.561401 C1435.85401,505.83735 1419.13267,487.292654 1394.02625,480.140539 C1381.96928,476.706086 1369.55168,476.412115 1359.50531,479.3233 C1349.45895,482.234486 1342.60681,488.112345 1340.45636,495.663753 C1335.97689,511.387804 1352.69824,529.932501 1377.80465,537.084615 C1389.86162,540.519069 1402.27923,540.813039 1412.32559,537.901854 C1422.37196,534.990669 1429.22409,529.112809 1431.37454,521.561401 L1431.37454,521.561401 Z M1650.92719,589.32315 C1653.18482,581.893866 1650.50255,573.296003 1643.47046,565.421021 C1636.43838,557.546039 1625.63251,551.039026 1613.43006,547.331474 C1588.02009,539.611219 1563.61066,545.894081 1558.90991,561.364682 C1556.65228,568.793966 1559.33454,577.391829 1566.36663,585.266812 C1573.39872,593.141794 1584.20459,599.648806 1596.40703,603.356358 C1621.81701,611.076614 1646.22644,604.793752 1650.92719,589.32315 L1650.92719,589.32315 Z"></path>
            <path fill-rule="nonzero" fill="#FD8A02" id="路径" d="M1358.43784,291.245054 C1361.69158,291.330663 1364.77791,292.705902 1367.01727,295.067975 C1369.25664,297.430048 1370.46544,300.58528 1370.37752,303.838959 L1370.37752,305.965202 C1369.82023,331.960904 1356.42321,352.751915 1340.44655,352.415448 L1336.84829,352.415448 C1329.16356,352.259975 1321.8971,347.138354 1316.65068,338.179563 C1311.40427,329.220772 1308.60862,317.160321 1308.88001,304.656745 L1308.88001,302.530501 C1308.96562,299.276761 1310.34086,296.190436 1312.70293,293.951068 C1315.065,291.711701 1318.22024,290.502903 1321.47391,290.590825 L1358.43784,291.245054 Z"></path>
            <path fill-rule="nonzero" fill="#FD8A02" id="路径" d="M1431.87503,302.530501 L1472.76433,308.745675 C1484.10429,310.381247 1486.50313,315.942192 1479.96084,325.428509 L1451.01122,367.299154 C1446.21354,374.386632 1441.08875,374.659228 1435.63684,368.11694 C1421.89804,351.870257 1416.44613,333.170217 1419.28112,312.016819 C1420.26246,304.602226 1424.46043,301.44012 1431.87503,302.530501 Z"></path>
            <path fill-rule="nonzero" fill="#FD8A02" id="路径" d="M1537.86009,326.082738 L1579.73074,338.8402 C1587.69052,341.239039 1589.70773,346.091236 1585.78235,353.396791 C1576.62315,370.842893 1563.48406,384.200065 1546.36507,393.468306 C1537.20587,398.375022 1531.91752,395.649069 1530.50002,385.290446 L1524.28485,337.6953 C1522.86735,326.791486 1527.39243,322.920632 1537.86009,326.082738 Z"></path>
            <path fill-rule="nonzero" fill="#FD8A02" id="路径" d="M1684.24379,395.921664 C1674.32132,415.112376 1659.3831,426.179747 1639.42912,429.123776 C1631.79645,430.214158 1628.08915,426.888495 1628.30723,419.146787 L1629.9428,373.35077 C1630.26991,364.191567 1634.795,361.029461 1643.51805,363.864452 L1675.73882,374.659228 C1686.96974,378.366524 1689.80474,385.454003 1684.24379,395.921664 Z"></path>
            <path fill-rule="nonzero" fill="#FFFFFF" id="路径" d="M1304.95464,387.580247 C1293.9963,494.710215 1294.15986,612.962073 1328.50687,717.965798 C1330.14245,722.872514 1328.45235,726.089139 1323.4366,727.615673 C1317.76662,729.360283 1314.11384,728.160863 1312.47827,724.017414 C1268.5359,614.761202 1261.93909,501.852213 1292.68785,385.290446 C1293.09688,383.099195 1294.64386,381.292612 1296.74606,380.55122 C1298.84825,379.809828 1301.18629,380.246262 1302.87945,381.696121 C1304.57261,383.145979 1305.36367,385.388996 1304.95464,387.580247 L1304.95464,387.580247 Z"></path>
            <path fill-rule="nonzero" fill="#915EFD" id="路径" d="M48.8353145,422.254374 L55.5411598,396.085221 C59.7936471,379.838539 65.1365157,379.511425 71.5697657,395.103878 C80.9470454,417.892848 98.284109,427.16109 123.580956,422.908603 C151.494719,418.219963 153.730001,423.235717 130.286802,437.955865 C107.60687,452.021785 104.117649,470.939901 119.819141,494.710215 C146.315408,534.945287 141.572249,539.47037 105.589664,508.285463 C86.1808759,491.49359 67.753431,493.020124 50.3073293,512.865065 C35.1510284,529.984052 30.4623886,526.876465 36.2414098,503.542304 C42.4565835,477.809304 33.2428611,461.235507 8.60024243,453.820914 C-2.41260926,450.54977 -2.84876181,446.188245 7.2917848,440.736338 C16.5600263,435.829622 26.5370157,432.940111 37.222753,432.067806 C43.4379268,431.631653 47.3087806,428.360509 48.8353145,422.254374 Z"></path>
            <path fill-rule="nonzero" fill="#FFCF00" id="路径" d="M1970.63245,560.787325 C1980.60944,487.023026 1923.03731,446.133726 1848.61878,455.947158 C1841.85842,456.819463 1838.80535,453.875433 1839.45958,447.115069 L1842.40361,417.838329 C1843.05784,411.405079 1846.60157,407.806821 1853.03482,407.043554 C1969.97823,393.79542 2043.90608,475.901137 2019.3725,589.246278 C1983.55347,754.766168 1767.82152,811.847632 1624.87253,814.303507 C1614.29583,814.410028 1612.98737,810.975327 1620.94715,803.996887 L1657.91108,771.121889 C1662.05453,767.305554 1666.90673,765.070272 1672.46767,764.416043 C1778.6163,750.677238 1953.29539,687.871272 1970.63245,560.787325 Z"></path>
            <path fill-rule="nonzero" fill="#000E3F" id="路径" d="M1424.02428,447.278626 L1448.06719,424.21706 C1459.08004,413.531323 1462.13311,415.43949 1457.22639,429.941562 C1451.01122,448.587084 1439.61673,460.853874 1423.04294,466.741933 C1417.04584,468.813658 1411.53941,467.941353 1406.52366,464.125018 C1390.49505,452.021785 1385.91545,436.320293 1392.78485,417.020543 C1398.23676,401.755204 1402.38021,402.082319 1405.2152,418.001887 L1409.63125,442.699024 C1411.48489,453.166685 1416.28257,454.693219 1424.02428,447.278626 Z"></path>
            <path fill-rule="nonzero" fill="#FEAC01" id="路径" d="M1826.70212,421.273031 C1778.07111,612.853035 1674.92103,759.34577 1517.25189,860.751236 C1512.45421,863.804304 1507.32942,864.567571 1501.87751,863.041037 L1441.03423,845.867531 C1474.83605,785.787518 1518.01515,733.721808 1570.57153,689.670401 C1650.22389,622.939062 1688.49628,575.180359 1726.93222,488.985713 C1729.00395,484.188035 1729.05846,479.390357 1727.09578,474.592679 C1718.37273,453.875433 1720.71705,434.139531 1734.12874,415.384971 C1738.16315,409.824026 1742.90631,409.060759 1748.35821,413.09517 C1770.38392,429.559929 1796.49855,432.285882 1826.70212,421.273031 Z"></path>
            <path fill-rule="nonzero" fill="#FFFFFF" id="路径" d="M1684.89802,736.938433 C1745.7413,653.197145 1791.86443,577.47016 1827.35634,479.008723 C1829.31903,473.665855 1833.08085,470.394711 1838.64179,469.195291 C1882.80224,460.363202 1929.90671,473.284221 1948.06156,518.589567 C1999.09141,645.182842 1784.01369,730.723259 1688.33272,742.662935 C1682.77178,743.317164 1681.62688,741.408997 1684.89802,736.938433 Z"></path>
            <path fill-rule="nonzero" fill="#D1D4DC" id="路径" d="M735.448454,470.99442 L674.768732,680.184084 L634.53366,597.751253 L659.06724,540.506232 C716.148704,532.491929 697.66674,486.368798 735.448454,470.99442 Z"></path>
            <path fill-rule="nonzero" fill="#000E3F" id="路径" d="M1488.1387,529.547899 C1515.94343,540.560751 1534.80703,531.728662 1544.7295,503.051632 C1548.54583,492.038781 1552.63476,491.929742 1556.99629,502.724518 C1583.49255,566.511827 1413.06595,565.857598 1464.25935,475.410465 C1471.89202,461.998774 1475.81739,462.980117 1476.03547,478.354495 L1476.52614,512.701507 C1476.63518,520.988406 1480.50603,526.60387 1488.1387,529.547899 Z"></path>
            <path fill-rule="nonzero" fill="#000319" id="路径" d="M1624.05474,508.776134 L1646.78919,487.023026 C1647.97232,485.739434 1649.88305,485.438432 1651.4035,486.296122 C1652.92395,487.153812 1653.65458,488.944809 1653.16792,490.621285 C1647.82505,514.173522 1633.48654,525.458969 1610.15238,524.477626 C1603.61009,524.150512 1598.59434,521.206482 1595.10512,515.645537 C1587.25437,502.669999 1585.89139,489.858018 1591.01619,477.209594 C1595.59579,465.869628 1599.41212,466.142223 1602.46519,478.02738 L1609.33459,504.687204 C1611.84247,514.500637 1616.74919,515.863613 1624.05474,508.776134 Z"></path>
            <ellipse ry="29.6038538" rx="47.2680318" cy="508.612577" cx="1385.91545" transform="translate(1385.915452, 508.612577) rotate(15.900000) translate(-1385.915452, -508.612577)" fill-rule="nonzero" fill="#FC09B2" id="椭圆形"></ellipse>
            <ellipse ry="29.2767394" rx="48.0858178" cy="575.343916" cx="1604.91855" transform="translate(1604.918547, 575.343916) rotate(16.900000) translate(-1604.918547, -575.343916)" fill-rule="nonzero" fill="#FC09B2" id="椭圆形"></ellipse>
            <path fill-rule="nonzero" fill="#915EFD" id="路径" d="M329.172361,728.433459 L354.850842,754.602611 C362.374473,762.344319 360.79342,766.814882 350.107683,768.014302 L310.363283,772.757461 C303.820995,773.520728 299.077836,776.846391 296.133806,782.73445 L279.287414,816.10012 C273.726469,827.222009 268.329081,827.16749 263.095251,815.936562 L246.248859,779.626863 C243.959058,774.829185 240.197242,771.830637 234.963412,770.631217 L193.092768,761.308456 C177.718391,757.928274 177.064162,752.585406 191.130081,745.279851 C222.860179,728.92413 233.654954,702.318825 223.514408,665.463935 C220.352302,653.905893 223.841522,651.288978 233.982069,657.61319 L266.202838,677.730726 C270.891478,680.674755 275.852713,681.110908 281.086543,679.039183 L322.139401,662.192791 C331.407643,658.267418 334.951382,661.265967 332.77062,671.188437 L323.938531,709.62438 C322.302959,716.820897 324.047569,723.09059 329.172361,728.433459 Z"></path>
            <ellipse ry="16.1921631" rx="56.9179068" cy="792.384325" cx="738.883156" transform="translate(738.883156, 792.384325) rotate(81.700000) translate(-738.883156, -792.384325)" fill-rule="nonzero" fill="#FFCF00" id="椭圆形"></ellipse>
            <path fill-rule="nonzero" fill="#FFCF00" id="路径" d="M520.207175,862.550365 C520.301617,865.019818 518.419762,867.118811 515.954687,867.293524 L508.594613,867.620639 C503.259603,867.840732 497.969261,863.879011 493.889036,856.608234 C489.808811,849.337457 487.273456,839.354139 486.841505,828.857581 L485.696605,801.707086 C484.780447,779.955049 492.964932,761.905337 504.015011,761.308456 L511.375086,760.981342 C512.589881,760.937181 513.772394,761.377807 514.662083,762.206138 C515.551772,763.034469 516.075633,764.182536 516.118245,765.397387 L520.207175,862.550365 Z"></path>
            <path fill-rule="nonzero" fill="#FFFFFF" id="路径" d="M537.707795,799.580842 C566.166749,814.30099 662.992613,795.982584 697.012511,790.258081 C702.900571,789.276738 706.44431,791.730096 707.64373,797.618156 L712.386889,821.33395 C714.022461,829.729887 710.642278,833.110069 702.246342,831.474497 C647.94535,820.788759 595.225412,825.859033 544.086526,846.685317 C537.980391,849.084156 534.436651,847.06695 533.455308,840.6337 L528.05792,806.450245 C526.749463,797.836232 529.966088,795.546431 537.707795,799.580842 Z"></path>
            <path transform="translate(1393.929755, 871.709569) rotate(17.200000) translate(-1393.929755, -871.709569)" fill-rule="nonzero" fill="#FFCF00" id="矩形" d="M1254.58412,851.592033 L1533.27539,851.592033 C1533.91052,851.592033 1534.42539,852.106905 1534.42539,852.742033 L1534.42539,890.677105 C1534.42539,891.312232 1533.91052,891.827105 1533.27539,891.827105 L1254.58412,891.827105 C1253.94899,891.827105 1253.43412,891.312232 1253.43412,890.677105 L1253.43412,852.742033 C1253.43412,852.106905 1253.94899,851.592033 1254.58412,851.592033 Z"></path>
            <path fill-rule="nonzero" fill="#FFCF00" id="形状" d="M822.624444,916.6878 C813.792355,925.956041 802.724984,929.826895 789.422331,928.300361 C769.904505,925.901522 766.033651,932.607367 777.80977,948.417897 C785.224363,958.231329 794.710681,960.684687 806.268723,955.777971 C809.97602,954.251437 813.192645,954.905666 815.918598,957.740658 C817.118018,958.940077 818.317437,960.084978 819.516857,961.175359 C823.769344,965.427846 824.041939,969.952929 820.334643,974.750607 C812.592935,984.564039 811.338997,994.704586 816.572827,1005.17225 C818.862628,1009.75185 819.953009,1014.60405 819.843971,1019.72884 C817.227056,1101.83455 773.393725,1194.73505 684.582164,1204.71203 C637.695766,1210.0549 596.642908,1189.93737 561.42359,1144.35943 C578.651615,1142.72385 590.863886,1135.85445 598.060403,1123.75122 C601.177648,1118.327 600.891236,1111.5923 597.324721,1106.45232 C593.758205,1101.31234 587.54976,1098.6868 581.377569,1099.70831 L543.432297,1106.41416 C536.999047,1107.61358 533.182713,1111.42991 531.983293,1117.86316 C530.565797,1125.49583 532.037812,1132.03812 536.399338,1137.49002 C512.629024,1145.12269 488.695153,1145.61337 464.597725,1138.96204 C459.363895,1137.54454 454.239103,1138.03521 449.223348,1140.43405 L413.731435,1157.93467 C356.813528,903.276109 636.005675,729.414802 822.624444,916.6878 Z M620.631297,872.363798 C613.216704,875.525903 611.308537,880.650696 614.906795,887.738175 C618.286978,894.389501 623.684365,897.224492 631.098959,896.243149 L636.496346,895.425363 C639.670239,894.949026 642.328497,892.748554 643.366504,889.738334 C644.404511,886.728114 643.6448,883.4228 641.403062,881.195887 L635.515003,875.307827 C631.153478,871.05534 626.192242,870.073997 620.631297,872.363798 Z M745.589001,895.425363 L734.303554,900.659194 C729.8335,902.81403 727.407149,907.784609 728.46746,912.614914 C729.527771,917.445218 733.790087,920.838485 738.719598,920.77673 L748.369473,920.77673 C753.82138,920.77673 756.547333,918.050776 756.547333,912.59887 L756.547333,902.294766 C756.547333,894.334982 752.894556,892.045181 745.589001,895.425363 Z M727.810333,1074.52076 C733.18917,1074.54867 738.359794,1072.26662 742.184713,1068.17638 C746.009632,1064.08614 748.175525,1058.52276 748.206243,1052.71015 C748.236455,1046.89739 746.128892,1041.31149 742.346894,1037.18136 C738.564895,1033.05122 733.418282,1030.71518 728.039313,1030.68691 C722.660475,1030.659 717.489852,1032.94105 713.664933,1037.0313 C709.840014,1041.12154 707.674121,1046.68491 707.643402,1052.49752 C707.613191,1058.31028 709.720754,1063.89618 713.502752,1068.02632 C717.284751,1072.15645 722.431364,1074.49249 727.810333,1074.52076 L727.810333,1074.52076 Z M583.340255,1067.97821 C583.340255,1056.50628 574.040419,1047.20645 562.56849,1047.20645 C551.096561,1047.20645 541.796725,1056.50628 541.796725,1067.97821 C541.796725,1079.45014 551.096561,1088.74998 562.56849,1088.74998 C574.040419,1088.74998 583.340255,1079.45014 583.340255,1067.97821 L583.340255,1067.97821 Z M647.781793,1097.58207 C632.734531,1093.32958 624.120518,1083.78874 621.939755,1068.95956 C621.573643,1065.98895 619.099158,1063.77826 616.094752,1063.73766 C613.090347,1063.69706 610.440922,1065.83851 609.836522,1068.796 C596.261274,1135.20022 708.461516,1117.86316 686.217736,1062.09015 C682.946592,1053.69422 679.511891,1053.6397 675.913632,1061.9266 L663.483285,1090.22199 C660.430217,1097.30947 655.196386,1099.76283 647.781793,1097.58207 Z M458.873223,1083.51615 C445.62509,1063.0715 426.32534,1082.04413 435.975215,1102.8159 C437.234311,1105.5944 439.773082,1107.58116 442.772776,1108.13545 C445.772471,1108.68975 448.85359,1107.74144 451.022478,1105.59637 L457.074094,1099.54475 C461.98081,1094.63804 462.58052,1089.29517 458.873223,1083.51615 Z M770.084963,1100.95298 C768.513445,1090.31978 752.173283,1083.92504 733.587173,1086.66953 C724.66113,1087.98748 716.400167,1091.28013 710.621668,1095.82312 C704.843168,1100.36611 702.020497,1105.78728 702.774632,1110.89399 C704.34615,1121.52719 720.686312,1127.92193 739.272422,1125.17744 C748.198465,1123.85949 756.459428,1120.56683 762.237927,1116.02385 C768.016427,1111.48086 770.839098,1106.05969 770.084963,1100.95298 L770.084963,1100.95298 Z"></path>
            <path fill-rule="nonzero" fill="#FD8A02" id="路径" d="M635.515003,875.307827 L641.403062,881.195887 C643.6448,883.4228 644.404511,886.728114 643.366504,889.738334 C642.328497,892.748554 639.670239,894.949026 636.496346,895.425363 L631.098959,896.243149 C623.684365,897.224492 618.286978,894.389501 614.906795,887.738175 C611.308537,880.650696 613.216704,875.525903 620.631297,872.363798 C626.192242,870.073997 631.153478,871.05534 635.515003,875.307827 Z"></path>
            <path transform="translate(1379.209607, 921.103844) rotate(17.000000) translate(-1379.209607, -921.103844)" fill-rule="nonzero" fill="#FFCF00" id="矩形" d="M1309.58645,906.383696 L1448.83276,906.383696 C1449.31325,906.383696 1449.70276,906.773208 1449.70276,907.253696 L1449.70276,934.953992 C1449.70276,935.43448 1449.31325,935.823992 1448.83276,935.823992 L1309.58645,935.823992 C1309.10596,935.823992 1308.71645,935.43448 1308.71645,934.953992 L1308.71645,907.253696 C1308.71645,906.773208 1309.10596,906.383696 1309.58645,906.383696 Z"></path>
            <path fill-rule="nonzero" fill="#FD8A02" id="路径" d="M745.589001,895.425363 C752.894556,892.045181 756.547333,894.334982 756.547333,902.294766 L756.547333,912.59887 C756.547333,918.050776 753.82138,920.77673 748.369473,920.77673 L738.719598,920.77673 C733.790087,920.838485 729.527771,917.445218 728.46746,912.614914 C727.407149,907.784609 729.8335,902.81403 734.303554,900.659194 L745.589001,895.425363 Z"></path>
            <path fill-rule="nonzero" fill="#FEAC01" id="路径" d="M822.624444,916.6878 C973.097071,1066.99687 869.074689,1317.56651 658.576569,1329.99685 C544.304603,1336.75722 462.689558,1279.40316 413.731435,1157.93467 L449.223348,1140.43405 C454.239103,1138.03521 459.363895,1137.54454 464.597725,1138.96204 C488.695153,1145.61337 512.629024,1145.12269 536.399338,1137.49002 L561.42359,1144.35943 C596.642908,1189.93737 637.695766,1210.0549 684.582164,1204.71203 C773.393725,1194.73505 817.227056,1101.83455 819.843971,1019.72884 C819.953009,1014.60405 818.862628,1009.75185 816.572827,1005.17225 C811.338997,994.704586 812.592935,984.564039 820.334643,974.750607 C824.041939,969.952929 823.769344,965.427846 819.516857,961.175359 C818.317437,960.084978 817.118018,958.940077 815.918598,957.740658 C813.192645,954.905666 809.97602,954.251437 806.268723,955.777971 C794.710681,960.684687 785.224363,958.231329 777.80977,948.417897 C766.033651,932.607367 769.904505,925.901522 789.422331,928.300361 C802.724984,929.826895 813.792355,925.956041 822.624444,916.6878 Z"></path>
            <path transform="translate(1363.835230, 970.171005) rotate(17.200000) translate(-1363.835230, -970.171005)" fill-rule="nonzero" fill="#FFCF00" id="矩形" d="M1258.35593,950.707698 L1469.31453,950.707698 C1469.95518,950.707698 1470.47453,951.227048 1470.47453,951.867698 L1470.47453,988.474312 C1470.47453,989.114963 1469.95518,989.634312 1469.31453,989.634312 L1258.35593,989.634312 C1257.71528,989.634312 1257.19593,989.114963 1257.19593,988.474312 L1257.19593,951.867698 C1257.19593,951.227048 1257.71528,950.707698 1258.35593,950.707698 Z"></path>
            <path fill-rule="nonzero" fill="#915EFD" id="路径" d="M2019.53606,975.895507 C2022.04394,967.172456 2026.78709,959.92142 2033.76553,954.142399 C2040.63494,948.472416 2044.61483,950.053469 2045.70521,958.885558 C2049.08539,984.50952 2064.13266,998.030249 2090.847,999.447745 C2094.65055,999.656137 2097.78186,1002.51305 2098.33723,1006.28161 C2098.8926,1010.05017 2096.71854,1013.68893 2093.1368,1014.98568 C2068.49418,1023.81777 2059.49853,1041.6455 2066.14986,1068.46888 C2067.09912,1072.46625 2065.11187,1076.58094 2061.39081,1078.32272 C2057.66975,1080.06449 2053.23708,1078.95487 2050.77548,1075.6654 C2034.85592,1054.18489 2015.44713,1052.16768 1992.54912,1069.61378 C1970.41438,1086.40566 1966.87064,1082.91644 1981.9179,1059.14612 C1997.0742,1035.48485 1992.98527,1015.14924 1969.65111,998.139287 C1954.93096,987.344512 1956.67557,982.601353 1974.88494,983.90981 L2004.81591,986.199611 C2012.55762,986.85384 2017.46433,983.419139 2019.53606,975.895507 Z"></path>
            <path fill-rule="nonzero" fill="#FFCF00" id="路径" d="M1353.53113,1007.29849 C1356.80227,1087.76863 1206.65676,1071.90359 1142.54233,1069.9409 L1284.18287,990.124984 C1288.43536,987.726145 1292.90592,987.289992 1297.59456,988.816526 L1353.53113,1007.29849 Z"></path>
            <path fill-rule="nonzero" fill="#FEAC01" id="路径" d="M1353.53113,1007.29849 L1412.57528,1024.30844 C1418.02718,1025.94401 1421.62544,1029.43323 1423.37005,1034.7761 C1438.63539,1082.64384 1461.15177,1126.85881 1490.91918,1167.42099 C1495.65471,1173.76885 1495.74075,1182.42498 1491.1326,1188.89126 C1486.52445,1195.35754 1478.26171,1198.17515 1470.63808,1195.87995 L1147.28549,1096.76428 C1140.41609,1094.69256 1137.19946,1090.05844 1137.63562,1082.86192 C1137.96273,1078.60943 1139.5983,1074.30242 1142.54233,1069.9409 C1206.65676,1071.90359 1356.80227,1087.76863 1353.53113,1007.29849 Z"></path>
            <path fill-rule="nonzero" fill="#915EFD" id="路径" d="M73.368895,1143.05097 C77.7849395,1108.5404 62.4105623,1100.19898 33.1338229,1091.53045 C21.6848187,1088.15027 21.1941471,1083.57067 31.6618081,1077.79164 L64.3732488,1059.80035 C68.4076598,1057.61959 70.7519797,1054.23941 71.4062085,1049.65981 L75.6586958,1017.11192 C76.640039,1010.02444 80.4018547,1008.00724 86.9441429,1011.06031 C95.0129649,1014.7676 101.228139,1021.0373 105.589664,1029.86938 C111.368685,1041.75454 120.309812,1045.02569 132.413045,1039.68282 C143.425897,1034.7761 154.275192,1034.39447 164.960929,1038.53792 C173.68398,1042.02714 174.556285,1046.93385 167.577844,1053.25806 C146.533484,1072.33974 146.315408,1091.85756 166.923615,1111.81154 C173.138789,1117.80864 172.648117,1123.15151 165.4516,1127.84015 L161.526228,1130.29351 C157.382778,1133.01946 153.075772,1133.29206 148.605209,1131.11129 C102.972749,1109.03107 107.061679,1157.60756 81.5467551,1153.84574 C75.3315814,1152.8644 72.605628,1149.26614 73.368895,1143.05097 Z"></path>
            <ellipse ry="20.2810932" rx="21.9166653" cy="1052.60384" cx="727.924823" transform="translate(727.924823, 1052.603836) rotate(90.300000) translate(-727.924823, -1052.603836)" fill-rule="nonzero" fill="#000E3F" id="椭圆形"></ellipse>
            <circle r="20.7717648" cy="1067.97821" cx="562.56849" fill-rule="nonzero" fill="#000319" id="椭圆形"></circle>
            <path fill-rule="nonzero" fill="#000E3F" id="路径" d="M663.483285,1090.22199 L675.913632,1061.9266 C679.511891,1053.6397 682.946592,1053.69422 686.217736,1062.09015 C708.461516,1117.86316 596.261274,1135.20022 609.836522,1068.796 C610.440922,1065.83851 613.090347,1063.69706 616.094752,1063.73766 C619.099158,1063.77826 621.573643,1065.98895 621.939755,1068.95956 C624.120518,1083.78874 632.734531,1093.32958 647.781793,1097.58207 C655.196386,1099.76283 660.430217,1097.30947 663.483285,1090.22199 Z"></path>
            <path fill-rule="nonzero" fill="#FD8A02" id="路径" d="M435.975215,1102.8159 C426.32534,1082.04413 445.62509,1063.0715 458.873223,1083.51615 C462.58052,1089.29517 461.98081,1094.63804 457.074094,1099.54475 L451.022478,1105.59637 C448.85359,1107.74144 445.772471,1108.68975 442.772776,1108.13545 C439.773082,1107.58116 437.234311,1105.5944 435.975215,1102.8159 Z"></path>
            <ellipse ry="19.4633072" rx="34.0198983" cy="1105.92348" cx="736.429797" transform="translate(736.429797, 1105.923484) rotate(-8.400000) translate(-736.429797, -1105.923484)" fill-rule="nonzero" fill="#FC09B2" id="椭圆形"></ellipse>
            <path fill-rule="nonzero" fill="#FC09B2" id="路径" d="M561.42359,1144.35943 L536.399338,1137.49002 C532.037812,1132.03812 530.565797,1125.49583 531.983293,1117.86316 C533.182713,1111.42991 536.999047,1107.61358 543.432297,1106.41416 L581.377569,1099.70831 C587.54976,1098.6868 593.758205,1101.31234 597.324721,1106.45232 C600.891236,1111.5923 601.177648,1118.327 598.060403,1123.75122 C590.863886,1135.85445 578.651615,1142.72385 561.42359,1144.35943 Z"></path>
            <path fill-rule="nonzero" fill="#915EFD" id="路径" d="M1768.14864,1224.01178 L1752.93782,1260.15793 C1748.79437,1269.86232 1744.21477,1270.0804 1739.19901,1260.81216 L1720.38993,1226.13803 C1717.66398,1221.12227 1713.52053,1218.01469 1707.95959,1216.81527 C1692.09454,1213.05345 1670.66854,1220.24997 1660.85511,1204.54848 C1657.36589,1198.98753 1658.40175,1194.57149 1663.9627,1191.30034 C1693.83915,1173.30905 1700.05432,1147.95769 1682.60822,1115.24624 C1680.49811,1111.25492 1681.49333,1106.32947 1684.98758,1103.47055 C1688.48182,1100.61162 1693.50681,1100.61144 1697.00125,1103.47013 C1724.91502,1126.69525 1752.22907,1125.87746 1778.94341,1101.01677 C1782.8501,1097.54091 1788.63288,1097.20403 1792.91674,1100.20274 C1797.20061,1103.20145 1798.86342,1108.75024 1796.9347,1113.61067 C1782.54167,1147.84865 1791.59184,1172.21867 1824.0852,1186.72074 C1839.56862,1193.59014 1839.07794,1198.98753 1822.61319,1202.91291 L1781.06966,1213.05345 C1774.85448,1214.57999 1770.54748,1218.23276 1768.14864,1224.01178 Z"></path>
            <path fill-rule="nonzero" fill="#FFCF00" id="路径" d="M1479.63373,1218.28728 C1469.16607,1234.75204 1455.64534,1241.94856 1439.07154,1239.87683 C1432.74733,1239.11357 1426.80475,1240.36751 1421.24381,1243.63865 L1363.67167,1278.47633 C1359.31015,1281.09325 1354.56699,1282.12911 1349.4422,1281.58392 C1299.61177,1275.91394 1244.8201,1263.70167 1185.06721,1244.94711 C1147.23097,1233.06195 1112.39329,1240.96721 1080.55137,1268.6629 C1080.33608,1215.23421 1092.92998,1165.62186 1118.33587,1119.82585 C1122.04007,1112.99574 1130.0383,1109.71441 1137.47206,1111.9751 L1479.63373,1218.28728 Z"></path>
            <path fill-rule="nonzero" fill="#FEAC01" id="路径" d="M1479.63373,1218.28728 C1478.43431,1272.26116 1466.00396,1322.74582 1442.34269,1369.74125 C1439.83481,1374.53893 1436.01848,1376.1745 1430.89368,1374.64797 L1080.55415,1268.6629 C1112.39329,1240.96721 1147.23097,1233.06195 1185.06721,1244.94711 C1244.8201,1263.70167 1299.61177,1275.91394 1349.4422,1281.58392 C1354.56699,1282.12911 1359.31015,1281.09325 1363.67167,1278.47633 L1421.24381,1243.63865 C1426.80475,1240.36751 1432.74733,1239.11357 1439.07154,1239.87683 C1455.64534,1241.94856 1469.16607,1234.75204 1479.63373,1218.28728 Z"></path>
            <path fill-rule="nonzero" fill="#FEAC01" id="形状" d="M1465.72973,1565.21992 C1463.96984,1570.94182 1460.00892,1575.7302 1454.7184,1578.53158 C1449.42788,1581.33297 1443.24117,1581.91787 1437.51939,1580.1576 L960.722333,1433.47459 C948.808549,1429.80907 942.121629,1417.17993 945.786289,1405.26588 L984.547711,1279.26631 C986.307604,1273.54441 990.268525,1268.75603 995.559044,1265.95465 C1000.84956,1263.15326 1007.03627,1262.56836 1012.75806,1264.32864 L1489.55511,1411.01164 C1501.46889,1414.67716 1508.15581,1427.3063 1504.49115,1439.22035 L1465.72973,1565.21992 Z M1274.20588,1474.25431 C1294.2689,1484.50389 1315.25874,1484.2313 1337.17541,1473.43652 C1348.95152,1512.19958 1445.28672,1463.29597 1463.76868,1452.5012 C1467.72465,1450.1424 1469.91267,1445.66854 1469.34575,1441.09774 C1468.77883,1436.52694 1465.56413,1432.72319 1461.15177,1431.40232 L1030.34209,1300.55656 C1018.97052,1297.13938 1006.95958,1303.47242 1003.35515,1314.78603 L978.330901,1392.96638 C977.282718,1396.13812 977.651165,1399.60764 979.342106,1402.4885 C981.033047,1405.36936 983.882694,1407.38252 987.16299,1408.01364 L1110.48512,1432.05655 C1111.68454,1432.27462 1112.66588,1432.81981 1113.42915,1433.69212 C1114.51953,1434.67346 1115.50088,1435.70933 1116.37318,1436.79971 C1120.18952,1441.05219 1124.7146,1442.14258 1129.94843,1440.07085 C1183.70423,1419.13553 1239.25916,1407.46845 1296.61322,1405.06961 C1311.55144,1404.41538 1311.9876,1406.54162 1297.92168,1411.44834 C1273.22454,1419.95331 1173.78176,1436.30903 1165.11323,1450.86563 C1162.1692,1455.88138 1163.53217,1458.66185 1169.20216,1459.20704 C1209.9279,1463.13242 1231.35389,1480.30592 1274.20588,1474.25431 Z"></path>
            <path fill-rule="nonzero" fill="#FFCF00" id="形状" d="M1337.17541,1473.43652 L1435.30973,1448.57583 C1441.5249,1446.94025 1442.07009,1444.2143 1436.9453,1440.39796 C1420.75314,1428.13117 1299.23013,1466.07645 1274.20588,1474.25431 C1231.35389,1480.30592 1209.9279,1463.13242 1169.20216,1459.20704 C1163.53217,1458.66185 1162.1692,1455.88138 1165.11323,1450.86563 C1173.78176,1436.30903 1273.22454,1419.95331 1297.92168,1411.44834 C1311.9876,1406.54162 1311.55144,1404.41538 1296.61322,1405.06961 C1239.25916,1407.46845 1183.70423,1419.13553 1129.94843,1440.07085 C1124.7146,1442.14258 1120.18952,1441.05219 1116.37318,1436.79971 C1115.50088,1435.70933 1114.51953,1434.67346 1113.42915,1433.69212 C1112.66588,1432.81981 1111.68454,1432.27462 1110.48512,1432.05655 L987.16299,1408.01364 C983.882694,1407.38252 981.033047,1405.36936 979.342106,1402.4885 C977.651165,1399.60764 977.282718,1396.13812 978.330901,1392.96638 L1003.35515,1314.78603 C1006.95958,1303.47242 1018.97052,1297.13938 1030.34209,1300.55656 L1461.15177,1431.40232 C1465.56413,1432.72319 1468.77883,1436.52694 1469.34575,1441.09774 C1469.91267,1445.66854 1467.72465,1450.1424 1463.76868,1452.5012 C1445.28672,1463.29597 1348.95152,1512.19958 1337.17541,1473.43652 Z M1181.35119,1361.05146 C1180.32457,1356.93197 1176.15284,1354.42468 1172.03333,1355.45126 L1021.26957,1393.04161 C1017.15074,1394.06897 1014.64433,1398.24047 1015.67101,1402.35947 L1016.06682,1403.94597 C1017.09344,1408.06546 1021.26517,1410.57275 1025.38467,1409.54617 L1176.14843,1371.95582 C1180.26726,1370.92846 1182.77368,1366.75696 1181.747,1362.63796 L1181.35119,1361.05146 Z"></path>
            <path transform="translate(1098.709003, 1382.498715) rotate(-14.000000) translate(-1098.709003, -1382.498715)" fill-rule="nonzero" fill="#FD8A02" id="矩形" d="M1013.80214,1373.99374 L1183.61586,1373.99374 C1183.87544,1373.99374 1184.08586,1374.20417 1184.08586,1374.46374 L1184.08586,1390.53369 C1184.08586,1390.79326 1183.87544,1391.00369 1183.61586,1391.00369 L1013.80214,1391.00369 C1013.54257,1391.00369 1013.33214,1390.79326 1013.33214,1390.53369 L1013.33214,1374.46374 C1013.33214,1374.20417 1013.54257,1373.99374 1013.80214,1373.99374 Z"></path>
            <path fill-rule="nonzero" fill="#FD8A02" id="路径" d="M1337.17541,1473.43652 C1315.25874,1484.2313 1294.2689,1484.50389 1274.20588,1474.25431 C1299.23013,1466.07645 1420.75314,1428.13117 1436.9453,1440.39796 C1442.07009,1444.2143 1441.5249,1446.94025 1435.30973,1448.57583 L1337.17541,1473.43652 Z"></path>
            <path fill-rule="nonzero" fill="#915EFD" id="路径" d="M1903.08333,1483.74062 L1934.64987,1499.60567 C1938.55698,1501.53862 1940.75686,1505.78432 1940.08278,1510.09098 C1939.40869,1514.39765 1936.01671,1517.7681 1931.70584,1518.41475 C1900.52093,1523.10339 1887.87251,1541.80343 1893.76057,1574.51487 C1894.32106,1578.36082 1892.10967,1582.11249 1888.48368,1583.46726 C1884.85768,1584.82203 1880.83176,1583.40078 1878.87686,1580.07582 C1863.39345,1553.36147 1840.659,1545.18361 1810.67351,1555.54224 C1801.40527,1558.81338 1797.53441,1555.59676 1799.06095,1545.89236 C1800.47844,1536.51508 1804.94901,1528.99145 1812.47264,1523.32147 C1818.25166,1518.95994 1819.72367,1513.45352 1816.88868,1506.80219 L1800.04229,1468.69336 C1798.40672,1464.98606 1799.38806,1462.26011 1802.98632,1460.5155 L1807.40237,1458.38926 C1810.34639,1456.97176 1813.23591,1457.02628 1816.0709,1458.55281 C1863.17537,1483.41351 1856.14241,1437.12682 1882.80224,1435.98192 C1889.45356,1435.65481 1892.83374,1438.81691 1892.94278,1445.46824 L1893.59701,1468.85692 C1893.81509,1475.72632 1896.97719,1480.68756 1903.08333,1483.74062 Z"></path>
        </g>
    </g>
</svg>