<svg version="1.1" xmlns="http://www.w3.org/2000/svg" viewBox="0 0 539.736328125 274.3333435058594" width="539.736328125" height="274.3333435058594">
  <!-- svg-source:excalidraw -->

  <defs>
    <style class="style-fonts">
      @font-face {
        font-family: "Virgil";
        src: url("https://excalidraw.com/Virgil.woff2");
      }
      @font-face {
        font-family: "Cascadia";
        src: url("https://excalidraw.com/Cascadia.woff2");
      }
      @font-face {
        font-family: "Assistant";
        src: url("https://excalidraw.com/Assistant-Regular.woff2");
      }
    </style>

  </defs>
  <rect x="0" y="0" width="539.736328125" height="274.3333435058594" fill="#ffffff"></rect><g stroke-linecap="round" transform="translate(47.66668701171875 10) rotate(0 188 103.33334350585938)"><path d="M-1.44 -1.05 L375.34 -1.69 L374.61 206.13 L-0.66 206.11" stroke="none" stroke-width="0" fill="#ffec99"></path><path d="M0 0 C106.81 -2.54, 215.08 -0.99, 376 0 M0 0 C126.54 -2.55, 252.31 -1.68, 376 0 M376 0 C374.94 43.15, 378.23 90.1, 376 206.67 M376 0 C377.37 48.71, 378.09 98.86, 376 206.67 M376 206.67 C283.19 208.59, 191.09 207.59, 0 206.67 M376 206.67 C286.47 207.74, 196.43 207.61, 0 206.67 M0 206.67 C-0.57 139.63, 0.05 76.37, 0 0 M0 206.67 C0.45 158.59, 0.63 110.97, 0 0" stroke="#1e1e1e" stroke-width="2" fill="none"></path></g><g stroke-linecap="round" transform="translate(74.33331298828125 32) rotate(0 164.00003051757812 80)"><path d="M-0.12 -0.2 L327.17 0.22 L326.2 159.67 L-0.54 159.76" stroke="none" stroke-width="0" fill="#ffffff"></path><path d="M0 0 C120.64 0.72, 240.36 1.98, 328 0 M0 0 C122.53 0.88, 246.46 0.82, 328 0 M328 0 C325.55 57.75, 325.63 110.78, 328 160 M328 0 C329.3 44.24, 328.38 89.95, 328 160 M328 160 C234 159.97, 140.28 160.65, 0 160 M328 160 C218.27 157.86, 108.38 158.16, 0 160 M0 160 C2.34 100.52, 1.28 45.26, 0 0 M0 160 C-0.47 97.88, -0.3 37.09, 0 0" stroke="#1e1e1e" stroke-width="2" fill="none"></path></g><g stroke-linecap="round" transform="translate(76.33331298828125 33.33328247070318) rotate(0 162.33334350585938 78.33334350585935)"><path d="M32 0 C98.82 2.45, 163.71 0.46, 292.67 0 C317.54 3.34, 323.69 13.41, 324.67 32 C327.09 60.93, 324.4 88.5, 324.67 124.67 C325.35 146.03, 312.8 157.47, 292.67 156.67 C207.35 152.49, 122.54 153.48, 32 156.67 C9.11 159.19, -3.01 143.42, 0 124.67 C1.86 94.62, -4.15 63.77, 0 32 C-2.27 10.93, 12.81 0.02, 32 0" stroke="none" stroke-width="0" fill="#a5d8ff"></path><path d="M32 0 C102.88 -1.76, 174.36 0.13, 292.67 0 M32 0 C110.87 0.73, 190.5 1.44, 292.67 0 M292.67 0 C312.68 -0.43, 325.62 12.01, 324.67 32 M292.67 0 C312.43 1.4, 323.64 11.47, 324.67 32 M324.67 32 C324.41 65.57, 324.12 100.32, 324.67 124.67 M324.67 32 C324.61 61.42, 325.02 92.41, 324.67 124.67 M324.67 124.67 C324.25 147.02, 315.5 157.5, 292.67 156.67 M324.67 124.67 C322.52 148.29, 314.28 158.01, 292.67 156.67 M292.67 156.67 C240.47 158.97, 186.2 159.13, 32 156.67 M292.67 156.67 C189.89 157.05, 85.45 158.12, 32 156.67 M32 156.67 C9.45 158.13, 1.95 146.65, 0 124.67 M32 156.67 C12.32 157.01, -2.29 145.61, 0 124.67 M0 124.67 C-0.81 96.14, 0.06 71.88, 0 32 M0 124.67 C-0.78 99.12, 0.56 73.55, 0 32 M0 32 C1.21 9.21, 11.49 -1.12, 32 0 M0 32 C1.77 10.47, 11.5 -1.63, 32 0" stroke="#1e1e1e" stroke-width="1" fill="none"></path></g><g stroke-linecap="round" transform="translate(77 32) rotate(0 32.3333740234375 32)"><path d="M41.46 0.78 C47.24 1.92, 53.61 7.47, 57.55 12.46 C61.49 17.45, 64.77 24.49, 65.11 30.72 C65.44 36.96, 63.27 44.67, 59.54 49.85 C55.82 55.03, 48.76 59.64, 42.76 61.83 C36.76 64.02, 29.59 64.7, 23.52 62.97 C17.46 61.25, 10.31 56.41, 6.36 51.47 C2.41 46.54, 0.01 39.49, -0.16 33.34 C-0.34 27.19, 1.76 19.75, 5.31 14.57 C8.86 9.39, 14.22 4.01, 21.15 2.28 C28.09 0.54, 41.67 3.25, 46.92 4.18 C52.17 5.12, 52.74 7.4, 52.63 7.87 M23 2.36 C29.03 0.45, 39.39 0.83, 45.41 2.95 C51.44 5.06, 55.84 10.07, 59.16 15.07 C62.47 20.06, 65.37 26.5, 65.3 32.92 C65.24 39.34, 62.86 48.47, 58.77 53.57 C54.69 58.68, 47.17 62.26, 40.81 63.53 C34.46 64.81, 26.82 63.76, 20.63 61.21 C14.43 58.67, 7.02 53.27, 3.64 48.27 C0.26 43.27, -0.5 37.2, 0.34 31.22 C1.18 25.23, 4.55 17.43, 8.68 12.37 C12.81 7.31, 22.31 2.55, 25.13 0.83 C27.96 -0.89, 25.47 1.49, 25.64 2.04" stroke="none" stroke-width="0" fill="#ffffff"></path><path d="M36.35 0.08 C42.56 0.43, 50.59 4.33, 55.2 8.78 C59.81 13.24, 62.86 20.72, 64 26.8 C65.15 32.87, 64.81 39.72, 62.05 45.24 C59.28 50.75, 53.12 56.79, 47.4 59.89 C41.68 62.99, 34.05 64.59, 27.73 63.85 C21.41 63.11, 14.08 59.66, 9.5 55.45 C4.92 51.24, 1.3 44.94, 0.25 38.58 C-0.79 32.23, 0.42 23.22, 3.22 17.3 C6.02 11.39, 10.89 5.93, 17.05 3.09 C23.22 0.25, 36.14 0.33, 40.21 0.26 C44.29 0.19, 41.86 1.89, 41.52 2.66 M40.14 0.28 C46.29 1.28, 51.68 6.96, 55.86 11.82 C60.04 16.69, 64.25 23.25, 65.24 29.47 C66.23 35.69, 65.16 44.02, 61.81 49.14 C58.46 54.27, 51.12 58.05, 45.14 60.22 C39.15 62.38, 32.01 63.31, 25.91 62.11 C19.8 60.9, 12.85 57.53, 8.5 53 C4.15 48.47, 0.66 40.91, -0.19 34.93 C-1.04 28.96, 0.37 22.43, 3.43 17.15 C6.49 11.87, 12.34 5.76, 18.17 3.26 C24 0.76, 35.02 2.59, 38.4 2.16 C41.77 1.74, 38.27 0.33, 38.41 0.72" stroke="#1e1e1e" stroke-width="1" fill="none"></path></g><g stroke-linecap="round"><g transform="translate(109.6666259765625 64.66665649414062) rotate(0 -17.49137243247901 0.496676135087057)"><path d="M0 0 C-12.17 1.11, -25.82 0.57, -34.98 0.99 M0 0 C-12.71 0.3, -25.92 0.81, -34.98 0.99" stroke="#1e1e1e" stroke-width="1" fill="none"></path></g><g transform="translate(109.6666259765625 64.66665649414062) rotate(0 -17.49137243247901 0.496676135087057)"><path d="M-18.7 -5.42 C-23.99 -2.37, -30.58 -0.77, -34.98 0.99 M-18.7 -5.42 C-24.53 -3.09, -30.83 -0.61, -34.98 0.99" stroke="#1e1e1e" stroke-width="1" fill="none"></path></g><g transform="translate(109.6666259765625 64.66665649414062) rotate(0 -17.49137243247901 0.496676135087057)"><path d="M-18.39 6.55 C-23.81 5.12, -30.52 2.25, -34.98 0.99 M-18.39 6.55 C-24.39 4.47, -30.79 2.56, -34.98 0.99" stroke="#1e1e1e" stroke-width="1" fill="none"></path></g></g><mask></mask><g stroke-linecap="round"><g transform="translate(109.66668701171875 63.33331298828125) rotate(0 -18 -15)"><path d="M0.3 0.09 C-5.67 -5.04, -28.66 -24.58, -34.8 -29.67 M-1.01 -0.9 C-7.11 -5.9, -29.03 -26.87, -35.12 -31.62" stroke="#1e1e1e" stroke-width="1" fill="none"></path></g><g transform="translate(109.66668701171875 63.33331298828125) rotate(0 -18 -15)"><path d="M-13.27 -23.16 C-21.52 -24.34, -29.46 -30.45, -35.12 -31.62 M-13.27 -23.16 C-19.79 -25.39, -24.62 -26.74, -35.12 -31.62" stroke="#1e1e1e" stroke-width="1" fill="none"></path></g><g transform="translate(109.66668701171875 63.33331298828125) rotate(0 -18 -15)"><path d="M-23.82 -11.1 C-28.17 -16.9, -32.08 -27.61, -35.12 -31.62 M-23.82 -11.1 C-27.69 -16.41, -29.77 -20.9, -35.12 -31.62" stroke="#1e1e1e" stroke-width="1" fill="none"></path></g></g><mask></mask><g transform="translate(103 33.333343505859375) rotate(0 9.3798828125 7.501358234295424)"><text x="0" y="0" font-family="Helvetica, Segoe UI Emoji" font-size="13.045840407470287px" fill="#e03131" text-anchor="start" style="white-space: pre;" direction="ltr" dominant-baseline="text-before-edge">r√2</text></g><g transform="translate(95.66665649414062 69.33328247070312) rotate(0 2.663421630859375 9.197786840176008)"><text x="0" y="0" font-family="Helvetica, Segoe UI Emoji" font-size="15.996151026393091px" fill="#e03131" text-anchor="start" style="white-space: pre;" direction="ltr" dominant-baseline="text-before-edge">r</text></g><g stroke-linecap="round"><g transform="translate(58.926815897728375 228.66671752929688) rotate(0 11.369935556995188 -21.333343505859375)"><path d="M-1.2 -0.99 C2.51 -8.25, 17.94 -36.8, 21.91 -43.72 M0.37 1.1 C4.5 -6.04, 20.62 -35.7, 24.18 -42.73" stroke="#e03131" stroke-width="1" fill="none"></path></g><g transform="translate(58.926815897728375 228.66671752929688) rotate(0 11.369935556995188 -21.333343505859375)"><path d="M20.87 -18.78 C20.13 -26.59, 20.94 -31.89, 24.18 -42.73 M20.87 -18.78 C21.38 -25.35, 23.65 -32.9, 24.18 -42.73" stroke="#e03131" stroke-width="1" fill="none"></path></g><g transform="translate(58.926815897728375 228.66671752929688) rotate(0 11.369935556995188 -21.333343505859375)"><path d="M6.25 -26.52 C9.45 -32.09, 14.18 -35.31, 24.18 -42.73 M6.25 -26.52 C11.33 -30.53, 18.21 -35.64, 24.18 -42.73" stroke="#e03131" stroke-width="1" fill="none"></path></g></g><mask></mask><g transform="translate(10 241.33334350585938) rotate(0 193.9208984375 11.5)"><text x="0" y="0" font-family="Helvetica, Segoe UI Emoji" font-size="20px" fill="#e03131" text-anchor="start" style="white-space: pre;" direction="ltr" dominant-baseline="text-before-edge">使用box-shadow颜色覆盖，扩张值不能小于</text></g><g transform="translate(405 241.33334350585938) rotate(0 62.3681640625 11.5)"><text x="0" y="0" font-family="Helvetica, Segoe UI Emoji" font-size="20px" fill="#2f9e44" text-anchor="start" style="white-space: pre;" direction="ltr" dominant-baseline="text-before-edge">r√2-r = (√2-1)r</text></g></svg>
