<svg version="1.1" xmlns="http://www.w3.org/2000/svg" viewBox="0 0 297.33331298828125 150" width="297.33331298828125" height="150">
  <!-- svg-source:excalidraw -->

  <defs>
    <style class="style-fonts">
      @font-face {
        font-family: "Virgil";
        src: url("https://excalidraw.com/Virgil.woff2");
      }
      @font-face {
        font-family: "Cascadia";
        src: url("https://excalidraw.com/Cascadia.woff2");
      }
      @font-face {
        font-family: "Assistant";
        src: url("https://excalidraw.com/Assistant-Regular.woff2");
      }
    </style>

  </defs>
  <rect x="0" y="0" width="297.33331298828125" height="150" fill="#ffffff"></rect><g stroke-linecap="round" transform="translate(10 10) rotate(0 138.66665649414062 65)"><path d="M-1.16 -0.36 L277.22 1.93 L276.49 129.72 L-1.42 130.91" stroke="none" stroke-width="0" fill="#ffec99"></path><path d="M0 0 C91.37 -1.31, 184.47 -1.84, 277.33 0 M0 0 C60.89 1.14, 123.23 -0.03, 277.33 0 M277.33 0 C279.08 36.48, 276.55 75.15, 277.33 130 M277.33 0 C276.99 48.18, 278.19 97.09, 277.33 130 M277.33 130 C203.61 128.93, 130.07 128.96, 0 130 M277.33 130 C173.32 132.05, 71.2 132.21, 0 130 M0 130 C-1.72 96.56, 0.58 57.66, 0 0 M0 130 C0.65 80.47, -1.05 32.39, 0 0" stroke="#1e1e1e" stroke-width="2" fill="none"></path></g><g stroke-linecap="round" transform="translate(33.33331298828125 28.66668701171875) rotate(0 111.66665649414062 45)"><path d="M22.5 0 C68.57 -0.43, 111.34 -1.98, 200.83 0 C217.4 -0.66, 219.97 9.54, 223.33 22.5 C225.57 38.57, 220.03 51.05, 223.33 67.5 C224.04 85.99, 214.24 87.57, 200.83 90 C156.7 92.2, 113 93.92, 22.5 90 C7.6 89.64, -2.03 79.58, 0 67.5 C-3.32 51.66, -1.31 31.44, 0 22.5 C0.22 5.82, 4.73 2.58, 22.5 0" stroke="none" stroke-width="0" fill="#a5d8ff"></path><path d="M22.5 0 C85.09 -0.22, 149.95 -0.51, 200.83 0 M22.5 0 C86.83 2.49, 149.81 1.5, 200.83 0 M200.83 0 C215.44 -1.22, 223.11 6.16, 223.33 22.5 M200.83 0 C216.42 -1.89, 224.92 6.07, 223.33 22.5 M223.33 22.5 C223.98 35.78, 225.4 45.83, 223.33 67.5 M223.33 22.5 C224.03 37.5, 222.79 53.21, 223.33 67.5 M223.33 67.5 C222.69 82.41, 215.64 88.89, 200.83 90 M223.33 67.5 C224.9 83.53, 215.38 89.26, 200.83 90 M200.83 90 C153.23 89.78, 103.68 88.59, 22.5 90 M200.83 90 C138.82 89.6, 77.48 88.8, 22.5 90 M22.5 90 C6.76 90.33, 1.51 81.4, 0 67.5 M22.5 90 C5.86 88.51, 0.75 83.78, 0 67.5 M0 67.5 C-0.26 55.47, -1.69 43.52, 0 22.5 M0 67.5 C1.07 51.77, -0.12 37.11, 0 22.5 M0 22.5 C1.36 7.73, 7.65 1.7, 22.5 0 M0 22.5 C1.74 6.08, 8.52 0.12, 22.5 0" stroke="#1e1e1e" stroke-width="2" fill="none"></path></g><g transform="translate(75.33331298828125 56) rotate(0 29.296875 12)"><text x="0" y="0" font-family="Cascadia, Segoe UI Emoji" font-size="20px" fill="#1e1e1e" text-anchor="start" style="white-space: pre;" direction="ltr" dominant-baseline="text-before-edge">haha!</text></g></svg>
