<svg version="1.1" xmlns="http://www.w3.org/2000/svg" viewBox="0 0 314.35870361328125 173.00006103515625" width="314.35870361328125" height="173.00006103515625">
  <!-- svg-source:excalidraw -->

  <defs>
    <style class="style-fonts">
      @font-face {
        font-family: "Virgil";
        src: url("https://excalidraw.com/Virgil.woff2");
      }
      @font-face {
        font-family: "Cascadia";
        src: url("https://excalidraw.com/Cascadia.woff2");
      }
      @font-face {
        font-family: "Assistant";
        src: url("https://excalidraw.com/Assistant-Regular.woff2");
      }
    </style>

  </defs>
  <rect x="0" y="0" width="314.35870361328125" height="173.00006103515625" fill="#ffffff"></rect><g stroke-linecap="round" transform="translate(10 10) rotate(0 67.66668701171875 58.666656494140625)"><path d="M0 0 C0 0, 0 0, 0 0 M0 0 C0 0, 0 0, 0 0 M0.27 24.08 C5.76 17.76, 11.26 11.43, 21.26 -0.07 M0.27 24.08 C7.13 16.19, 13.99 8.29, 21.26 -0.07 M-0.12 48.92 C10.2 37.05, 20.52 25.17, 42.52 -0.14 M-0.12 48.92 C12.92 33.91, 25.97 18.9, 42.52 -0.14 M0.14 73 C19.28 50.98, 38.42 28.96, 63.78 -0.21 M0.14 73 C22.96 46.75, 45.78 20.49, 63.78 -0.21 M-0.25 97.84 C17.28 77.68, 34.8 57.52, 85.04 -0.28 M-0.25 97.84 C26.53 67.03, 53.31 36.23, 85.04 -0.28 M3.96 117.39 C25.8 92.26, 47.64 67.14, 106.3 -0.34 M3.96 117.39 C26.51 91.44, 49.07 65.49, 106.3 -0.34 M25.22 117.32 C56.05 81.85, 86.89 46.37, 126.91 0.34 M25.22 117.32 C47.02 92.23, 68.83 67.15, 126.91 0.34 M46.48 117.25 C64.87 96.09, 83.27 74.92, 135.7 14.61 M46.48 117.25 C81.22 77.28, 115.96 37.31, 135.7 14.61 M67.74 117.18 C83.92 98.56, 100.11 79.95, 135.97 38.69 M67.74 117.18 C85.76 96.45, 103.79 75.71, 135.97 38.69 M89 117.11 C104.41 99.38, 119.82 81.65, 136.23 62.77 M89 117.11 C100.9 103.42, 112.81 89.72, 136.23 62.77 M110.26 117.04 C116.65 109.69, 123.04 102.34, 135.84 87.61 M110.26 117.04 C118.68 107.35, 127.11 97.66, 135.84 87.61 M131.52 116.98 C132.72 115.59, 133.92 114.21, 136.11 111.69 M131.52 116.98 C132.91 115.37, 134.31 113.76, 136.11 111.69" stroke="#f8f1ee" stroke-width="2" fill="none"></path><path d="M0 0 C33.71 0, 67.41 0, 135.33 0 M0 0 C28.32 0, 56.63 0, 135.33 0 M135.33 0 C135.33 44.84, 135.33 89.67, 135.33 117.33 M135.33 0 C135.33 46, 135.33 92, 135.33 117.33 M135.33 117.33 C106.36 117.33, 77.39 117.33, 0 117.33 M135.33 117.33 C82.97 117.33, 30.61 117.33, 0 117.33 M0 117.33 C0 78.53, 0 39.73, 0 0 M0 117.33 C0 75.39, 0 33.45, 0 0" stroke="#e03131" stroke-width="4" fill="none"></path></g><g stroke-linecap="round"><g transform="translate(122.66668701171875 138) rotate(0 10.33331298828125 0)"><path d="M0 0 C7.31 0, 14.62 0, 20.67 0 M0 0 C7.92 0, 15.85 0, 20.67 0" stroke="#e03131" stroke-width="1" fill="none"></path></g></g><mask></mask><g transform="translate(122.66668701171875 148.66668701171875) rotate(0 13.513611166373494 7.16668701171875)"><text x="0" y="0" font-family="Helvetica, Segoe UI Emoji" font-size="12.463803498641308px" fill="#e03131" text-anchor="start" style="white-space: pre;" direction="ltr" dominant-baseline="text-before-edge">15px</text></g><g stroke-linecap="round"><g transform="translate(130 112) rotate(0 7 7)"><path d="M0 0 C3.78 3.78, 7.57 7.57, 14 14 M0 0 C3.37 3.37, 6.73 6.73, 14 14" stroke="#e03131" stroke-width="1" fill="none"></path></g></g><mask></mask><g stroke-linecap="round"><g transform="translate(217.33331298828125 99.33331298828125) rotate(0 -38.33331298828125 8.333343505859375)"><path d="M0 0 C-17.12 3.72, -34.24 7.44, -76.67 16.67 M0 0 C-25.5 5.54, -50.99 11.09, -76.67 16.67" stroke="#e03131" stroke-width="1" fill="none"></path></g><g transform="translate(217.33331298828125 99.33331298828125) rotate(0 -38.33331298828125 8.333343505859375)"><path d="M-55.53 3.32 C-60.25 6.3, -64.97 9.28, -76.67 16.67 M-55.53 3.32 C-62.56 7.76, -69.59 12.2, -76.67 16.67" stroke="#e03131" stroke-width="1" fill="none"></path></g><g transform="translate(217.33331298828125 99.33331298828125) rotate(0 -38.33331298828125 8.333343505859375)"><path d="M-51.89 20.03 C-57.43 19.28, -62.96 18.53, -76.67 16.67 M-51.89 20.03 C-60.13 18.91, -68.37 17.79, -76.67 16.67" stroke="#e03131" stroke-width="1" fill="none"></path></g></g><mask></mask><g transform="translate(233.33331298828125 96) rotate(0 35.5126953125 11.5)"><text x="0" y="0" font-family="Helvetica, Segoe UI Emoji" font-size="20px" fill="#e03131" text-anchor="start" style="white-space: pre;" direction="ltr" dominant-baseline="text-before-edge">15px/√2</text></g><g stroke-linecap="round"><g transform="translate(118.66668701171875 131.33331298828125) rotate(0 0 6)"><path d="M0 0 C0 3.86, 0 7.72, 0 12 M0 0 C0 3.37, 0 6.74, 0 12" stroke="#e03131" stroke-width="1" fill="none"></path></g></g><mask></mask><g stroke-linecap="round"><g transform="translate(146 128) rotate(0 0 8.333343505859375)"><path d="M0 0 C0 5.18, 0 10.36, 0 16.67 M0 0 C0 6.28, 0 12.56, 0 16.67" stroke="#e03131" stroke-width="1" fill="none"></path></g></g><mask></mask></svg>
