<svg version="1.1" xmlns="http://www.w3.org/2000/svg" viewBox="0 0 1944.1666412353497 226.66671752929665" width="1944.1666412353497" height="226.66671752929665">
  <!-- svg-source:excalidraw -->

  <defs>
    <style class="style-fonts">
      @font-face {
        font-family: "Virgil";
        src: url("https://excalidraw.com/Virgil.woff2");
      }
      @font-face {
        font-family: "Cascadia";
        src: url("https://excalidraw.com/Cascadia.woff2");
      }
      @font-face {
        font-family: "Assistant";
        src: url("https://excalidraw.com/Assistant-Regular.woff2");
      }
    </style>

  </defs>
  <rect x="0" y="0" width="1944.1666412353497" height="226.66671752929665" fill="#ffffff"></rect><g stroke-linecap="round" transform="translate(10 28.33343505859375) rotate(0 161.66664123535145 94.16664123535145)"><path d="M32 0 C131.88 1.55, 218.99 -1.91, 291.33 0 C316.92 -0.42, 327.89 10.36, 323.33 32 C321.15 71.86, 321.99 118.18, 323.33 156.33 C320.2 175.51, 317.26 185.8, 291.33 188.33 C232.43 180.82, 177.94 181.97, 32 188.33 C13.56 188.67, 4.51 174.07, 0 156.33 C1.39 107.6, 0.52 57.77, 0 32 C-2.61 10.44, 5.99 -0.21, 32 0" stroke="none" stroke-width="0" fill="#ffffff"></path><path d="M32 0 C113.79 1.16, 195.06 -0.95, 291.33 0 M32 0 C123.82 -2.7, 217.24 -4.71, 291.33 0 M291.33 0 C312.29 -3.96, 323.07 11.43, 323.33 32 M291.33 0 C310.21 4.23, 323.72 14.12, 323.33 32 M323.33 32 C325.46 80.99, 325.94 123.72, 323.33 156.33 M323.33 32 C321.62 59.92, 320.3 86.24, 323.33 156.33 M323.33 156.33 C320.5 175.06, 315.71 189.47, 291.33 188.33 M323.33 156.33 C326.3 177.29, 309.22 188.37, 291.33 188.33 M291.33 188.33 C236.6 192.55, 184.7 193.17, 32 188.33 M291.33 188.33 C218.78 184.27, 144.62 185.28, 32 188.33 M32 188.33 C14.17 185.56, -3.8 180.25, 0 156.33 M32 188.33 C7.62 191.54, -1.24 177.4, 0 156.33 M0 156.33 C-5.09 116.22, 0.03 73.12, 0 32 M0 156.33 C-2.41 115.94, -2.32 74.88, 0 32 M0 32 C-2.18 14.32, 12.62 3.88, 32 0 M0 32 C-1.06 8.14, 15.03 -4.14, 32 0" stroke="#e03131" stroke-width="1" fill="none"></path></g><g stroke-linecap="round" transform="translate(448.3332824707029 20.000000000000227) rotate(0 158.333282470703 96.66671752929676)"><path d="M32 0 C132.49 8.66, 232.26 8.91, 284.67 0 C305.69 1.47, 316.17 5.39, 316.67 32 C321.29 63.36, 314.06 105.57, 316.67 161.33 C314.13 177.89, 306.53 189.12, 284.67 193.33 C225.01 193.07, 169.65 194.38, 32 193.33 C7.07 197.66, 1.26 184.47, 0 161.33 C-3.57 114.91, 0.95 69.04, 0 32 C-0.21 9.67, 13.31 -1.46, 32 0" stroke="none" stroke-width="0" fill="#ffffff"></path><path d="M32 0 C120.59 -1.38, 205.83 -0.23, 284.67 0 M32 0 C86.56 2.41, 141.08 2.45, 284.67 0 M284.67 0 C306.77 -2.14, 320.35 11, 316.67 32 M284.67 0 C309.45 3.01, 319.94 10.92, 316.67 32 M316.67 32 C319.84 68.8, 315.96 111.28, 316.67 161.33 M316.67 32 C316.54 70.41, 315.94 113.18, 316.67 161.33 M316.67 161.33 C317.8 185.25, 305.67 190.34, 284.67 193.33 M316.67 161.33 C316.7 178.4, 303.11 195.73, 284.67 193.33 M284.67 193.33 C219.47 193.76, 147.45 191.92, 32 193.33 M284.67 193.33 C206.34 191.51, 126.65 188.54, 32 193.33 M32 193.33 C13.25 190.69, 2.79 181.59, 0 161.33 M32 193.33 C10.4 194.82, 2.45 182.79, 0 161.33 M0 161.33 C-1.37 135.51, 0.73 105.11, 0 32 M0 161.33 C-1.14 130.99, 2.67 103.81, 0 32 M0 32 C3.88 9.75, 8.47 3.79, 32 0 M0 32 C-4.14 13.81, 10.33 1.66, 32 0" stroke="#2f9e44" stroke-width="1" fill="none"></path></g><g stroke-linecap="round" transform="translate(823.3333587646478 21.666564941406477) rotate(0 158.333282470703 96.66671752929676)"><path d="M32 0 C102.39 -2.7, 177.85 -4.7, 284.67 0 C301.47 4.77, 318.49 9.03, 316.67 32 C314.61 78.45, 315.28 134.4, 316.67 161.33 C313.14 179.88, 300.55 192.02, 284.67 193.33 C192.1 196.9, 93.14 197.64, 32 193.33 C14.99 189.25, -5.42 181.5, 0 161.33 C0.38 132.59, 5.98 102.01, 0 32 C-1.8 14.82, 12.57 0.74, 32 0" stroke="none" stroke-width="0" fill="#ffffff"></path><path d="M32 0 C89.72 0.65, 148.66 1.08, 284.67 0 M32 0 C93.3 2.34, 155.8 3.59, 284.67 0 M284.67 0 C303.26 -2.71, 318.93 7.54, 316.67 32 M284.67 0 C304 2.2, 316.35 14.34, 316.67 32 M316.67 32 C320.37 58.5, 316.8 91.56, 316.67 161.33 M316.67 32 C314.09 68.16, 315.65 107.25, 316.67 161.33 M316.67 161.33 C319.72 186.61, 304.37 191.07, 284.67 193.33 M316.67 161.33 C316.35 180.88, 310.57 195.84, 284.67 193.33 M284.67 193.33 C190.59 194.45, 93.01 195.61, 32 193.33 M284.67 193.33 C204.45 189.45, 122.48 190.46, 32 193.33 M32 193.33 C14.34 191.29, 0.17 184.18, 0 161.33 M32 193.33 C14.54 196.09, -4.14 178.2, 0 161.33 M0 161.33 C1.11 133.99, -0.39 100.95, 0 32 M0 161.33 C-0.88 121.2, -0.69 80.36, 0 32 M0 32 C-0.41 7.1, 13.83 0.45, 32 0 M0 32 C-1.88 11.25, 13.5 -2.69, 32 0" stroke="#1971c2" stroke-width="1" fill="none"></path></g><g stroke-linecap="round" transform="translate(1203.3333587646478 16.666564941406477) rotate(0 158.333282470703 96.66671752929676)"><path d="M32 0 C105.03 6.2, 186.91 0.99, 284.67 0 C311.33 -5.54, 317.6 12.19, 316.67 32 C314.57 57.23, 312.64 86.73, 316.67 161.33 C320.71 183.97, 306.43 195.15, 284.67 193.33 C195 194.9, 93.9 197.27, 32 193.33 C6.66 188.35, -1.68 179.82, 0 161.33 C-3.59 124.84, 0.12 80.76, 0 32 C1.23 13.93, 6.28 -4.74, 32 0" stroke="none" stroke-width="0" fill="#ffffff"></path><path d="M32 0 C105.34 -2.24, 179.7 -1.02, 284.67 0 M32 0 C91.42 -1.77, 154 -1.94, 284.67 0 M284.67 0 C304.26 1.91, 316.4 13.86, 316.67 32 M284.67 0 C302.34 3.36, 314.6 12.75, 316.67 32 M316.67 32 C314.88 61.73, 311.74 94.79, 316.67 161.33 M316.67 32 C319.03 69.21, 316.69 101.33, 316.67 161.33 M316.67 161.33 C316.39 181.12, 309.97 195.51, 284.67 193.33 M316.67 161.33 C320.45 181.27, 305.98 196.85, 284.67 193.33 M284.67 193.33 C200.74 194.87, 112.63 199.12, 32 193.33 M284.67 193.33 C218.22 193.77, 148.86 195.22, 32 193.33 M32 193.33 C14.03 195.73, -3.6 178.78, 0 161.33 M32 193.33 C7.57 191.43, -2.38 182.71, 0 161.33 M0 161.33 C1.68 113.15, -0.91 63.54, 0 32 M0 161.33 C1.07 113.98, 2.86 70.42, 0 32 M0 32 C-1.64 11.17, 13.13 -2.34, 32 0 M0 32 C-0.84 14.71, 12.96 -0.79, 32 0" stroke="#f08c00" stroke-width="1" fill="none"></path></g><g transform="translate(43.33320617675781 93.33328247070312) rotate(0 138.14516813858688 21.5)"><text x="0" y="0" font-family="Helvetica, Segoe UI Emoji" font-size="37.391304347826065px" fill="#e03131" text-anchor="start" style="white-space: pre;" direction="ltr" dominant-baseline="text-before-edge">编辑草案（ED）</text></g><g transform="translate(483.521396802819 76.8331298828125) rotate(0 129.81521606445312 43)"><text x="0" y="0" font-family="Helvetica, Segoe UI Emoji" font-size="37.391304347826065px" fill="#2f9e44" text-anchor="start" style="white-space: pre;" direction="ltr" dominant-baseline="text-before-edge">首个公开工作</text><text x="0" y="42.99999999999997" font-family="Helvetica, Segoe UI Emoji" font-size="37.391304347826065px" fill="#2f9e44" text-anchor="start" style="white-space: pre;" direction="ltr" dominant-baseline="text-before-edge">草案（FPWD）</text></g><g transform="translate(848.5214730967641 98.50015258789062) rotate(0 143.31614685058594 21.5)"><text x="0" y="0" font-family="Helvetica, Segoe UI Emoji" font-size="37.391304347826065px" fill="#1971c2" text-anchor="start" style="white-space: pre;" direction="ltr" dominant-baseline="text-before-edge">工作草案（WD）</text></g><g transform="translate(1238.3503417968745 82.66656494140625) rotate(0 112.16999816894531 43)"><text x="0" y="0" font-family="Helvetica, Segoe UI Emoji" font-size="37.391304347826065px" fill="#f08c00" text-anchor="start" style="white-space: pre;" direction="ltr" dominant-baseline="text-before-edge">提名推荐草案</text><text x="0" y="42.99999999999997" font-family="Helvetica, Segoe UI Emoji" font-size="37.391304347826065px" fill="#f08c00" text-anchor="start" style="white-space: pre;" direction="ltr" dominant-baseline="text-before-edge">      （CR）</text></g><g stroke-linecap="round" transform="translate(1617.500076293944 10) rotate(0 158.3332824707029 96.66671752929676)"><path d="M32 0 C107.78 -5.54, 177.48 -6.73, 284.67 0 M32 0 C104.82 -4.05, 179.39 -4.79, 284.67 0 M284.67 0 C303.99 1.04, 315.95 7.06, 316.67 32 M284.67 0 C306.79 3.56, 313.68 13.18, 316.67 32 M316.67 32 C320.63 75.91, 321.34 120.14, 316.67 161.33 M316.67 32 C315.75 65.18, 316.64 96.88, 316.67 161.33 M316.67 161.33 C314.71 184.16, 304.98 191.98, 284.67 193.33 M316.67 161.33 C312.99 184.06, 307.71 194.61, 284.67 193.33 M284.67 193.33 C210.28 189.21, 142.9 188.46, 32 193.33 M284.67 193.33 C187.8 191.61, 90.49 193.32, 32 193.33 M32 193.33 C11.69 193.94, -3.79 181.48, 0 161.33 M32 193.33 C13.91 197.1, -2.92 181.5, 0 161.33 M0 161.33 C0.39 117.4, 1.68 76.72, 0 32 M0 161.33 C1.38 110.69, -0.19 61.11, 0 32 M0 32 C-0.53 9.87, 10.6 -2.52, 32 0 M0 32 C-1.46 11.88, 9.5 -2.21, 32 0" stroke="#9c36b5" stroke-width="1" fill="none"></path></g><g transform="translate(1670.0172119140616 66.8331298828125) rotate(0 112.16999816894531 43)"><text x="0" y="0" font-family="Helvetica, Segoe UI Emoji" font-size="37.391304347826065px" fill="#9c36b5" text-anchor="start" style="white-space: pre;" direction="ltr" dominant-baseline="text-before-edge">正式推荐规范</text><text x="0" y="42.99999999999997" font-family="Helvetica, Segoe UI Emoji" font-size="37.391304347826065px" fill="#9c36b5" text-anchor="start" style="white-space: pre;" direction="ltr" dominant-baseline="text-before-edge">（REC）</text></g><g stroke-linecap="round"><g transform="translate(356.66664123535134 123.33328247070312) rotate(0 34.99999999999994 -7.5)"><path d="M-1.68 1.87 C10.11 -0.85, 58.87 -14.24, 71.11 -16.73 M2.6 0.41 C14.09 -1.94, 58.09 -11.05, 69.48 -14.04" stroke="#9c36b5" stroke-width="1" fill="none"></path></g><g transform="translate(356.66664123535134 123.33328247070312) rotate(0 34.99999999999994 -7.5)"><path d="M49.85 0.38 C53.84 -3.28, 62.99 -8.28, 70.75 -14.4 M49.32 -1.14 C53.02 -4.23, 57.55 -7.8, 69.4 -13.58" stroke="#9c36b5" stroke-width="1" fill="none"></path></g><g transform="translate(356.66664123535134 123.33328247070312) rotate(0 34.99999999999994 -7.5)"><path d="M46 -16.29 C51.16 -14.72, 61.51 -14.53, 70.75 -14.4 M45.47 -17.8 C49.93 -16.99, 55.36 -16.64, 69.4 -13.58" stroke="#9c36b5" stroke-width="1" fill="none"></path></g></g><mask></mask><g stroke-linecap="round"><g transform="translate(776.6666412353511 113.33328247070312) rotate(0 23.333358764648438 0)"><path d="M0.55 0.07 C8.15 -0.19, 37.91 -0.67, 45.73 -0.76 M-0.62 -0.94 C7.33 -1.14, 39.99 0.12, 47.95 0.39" stroke="#9c36b5" stroke-width="1" fill="none"></path></g><g transform="translate(776.6666412353511 113.33328247070312) rotate(0 23.333358764648438 0)"><path d="M25.87 6.02 C31.38 6.56, 38.87 4.05, 48.36 1.91 M26.08 8.03 C32.18 5.1, 35.65 3.82, 47.24 0.69" stroke="#9c36b5" stroke-width="1" fill="none"></path></g><g transform="translate(776.6666412353511 113.33328247070312) rotate(0 23.333358764648438 0)"><path d="M26.43 -9.93 C31.88 -4.4, 39.19 -1.93, 48.36 1.91 M26.65 -7.92 C32.48 -6.97, 35.82 -4.38, 47.24 0.69" stroke="#9c36b5" stroke-width="1" fill="none"></path></g></g><mask></mask><g stroke-linecap="round"><g transform="translate(1153.333358764648 108.33328247070312) rotate(0 20 0)"><path d="M-1.01 0.74 C5.62 0.98, 32.04 1.33, 38.93 1.07 M0.66 0.08 C7.72 0.04, 34.56 -0.49, 41.08 -0.49" stroke="#9c36b5" stroke-width="1" fill="none"></path></g><g transform="translate(1153.333358764648 108.33328247070312) rotate(0 20 0)"><path d="M23.6 4.78 C28.47 5.66, 29.61 4.51, 42.98 -0.25 M23.12 7.13 C28.59 4.64, 34.1 3.14, 40.4 -1.33" stroke="#9c36b5" stroke-width="1" fill="none"></path></g><g transform="translate(1153.333358764648 108.33328247070312) rotate(0 20 0)"><path d="M23.44 -8.9 C28.31 -4.87, 29.48 -2.88, 42.98 -0.25 M22.96 -6.55 C28.57 -5.05, 34.13 -2.56, 40.4 -1.33" stroke="#9c36b5" stroke-width="1" fill="none"></path></g></g><mask></mask><g stroke-linecap="round"><g transform="translate(1541.6666412353507 116.66671752929688) rotate(0 30.833358764648438 -2.5)"><path d="M-0.87 -0.28 C10.06 -0.78, 53.51 -3.72, 63.84 -4.4 M3.86 -2.9 C14.77 -4.18, 53.59 -9.42, 62.78 -9.09" stroke="#9c36b5" stroke-width="1" fill="none"></path></g><g transform="translate(1541.6666412353507 116.66671752929688) rotate(0 30.833358764648438 -2.5)"><path d="M39.69 2.51 C45.82 -1.76, 51.28 -2.58, 62.39 -8.4 M39.74 0.73 C45.6 -0.79, 52.43 -3.59, 62.28 -9.6" stroke="#9c36b5" stroke-width="1" fill="none"></path></g><g transform="translate(1541.6666412353507 116.66671752929688) rotate(0 30.833358764648438 -2.5)"><path d="M38.59 -14.55 C44.89 -14.76, 50.62 -11.52, 62.39 -8.4 M38.64 -16.34 C44.7 -13.2, 51.82 -11.34, 62.28 -9.6" stroke="#9c36b5" stroke-width="1" fill="none"></path></g></g><mask></mask></svg>
